<?xml version="1.0" encoding="utf-8" standalone="no"?>
<!DOCTYPE svg PUBLIC "-//W3C//DTD SVG 1.1//EN"
  "http://www.w3.org/Graphics/SVG/1.1/DTD/svg11.dtd">
<svg xmlns:xlink="http://www.w3.org/1999/xlink" width="1144.46125pt" height="423.034375pt" viewBox="0 0 1144.46125 423.034375" xmlns="http://www.w3.org/2000/svg" version="1.1">
 <metadata>
  <rdf:RDF xmlns:dc="http://purl.org/dc/elements/1.1/" xmlns:cc="http://creativecommons.org/ns#" xmlns:rdf="http://www.w3.org/1999/02/22-rdf-syntax-ns#">
   <cc:Work>
    <dc:type rdf:resource="http://purl.org/dc/dcmitype/StillImage"/>
    <dc:date>2025-07-22T10:43:54.504673</dc:date>
    <dc:format>image/svg+xml</dc:format>
    <dc:creator>
     <cc:Agent>
      <dc:title>Matplotlib v3.7.2, https://matplotlib.org/</dc:title>
     </cc:Agent>
    </dc:creator>
   </cc:Work>
  </rdf:RDF>
 </metadata>
 <defs>
  <style type="text/css">*{stroke-linejoin: round; stroke-linecap: butt}</style>
 </defs>
 <g id="figure_1">
  <g id="patch_1">
   <path d="M 0 423.034375 
L 1144.46125 423.034375 
L 1144.46125 0 
L 0 0 
z
" style="fill: #ffffff"/>
  </g>
  <g id="axes_1">
   <g id="patch_2">
    <path d="M 43.78125 385.478125 
L 562.522723 385.478125 
L 562.522723 22.318125 
L 43.78125 22.318125 
z
" style="fill: #ffffff"/>
   </g>
   <g id="matplotlib.axis_1">
    <g id="xtick_1">
     <g id="line2d_1">
      <path d="M 67.360408 385.478125 
L 67.360408 22.318125 
" clip-path="url(#pfc38936713)" style="fill: none; stroke: #b0b0b0; stroke-width: 0.8; stroke-linecap: square"/>
     </g>
     <g id="line2d_2">
      <defs>
       <path id="m028df03a2d" d="M 0 0 
L 0 3.5 
" style="stroke: #000000; stroke-width: 0.8"/>
      </defs>
      <g>
       <use xlink:href="#m028df03a2d" x="67.360408" y="385.478125" style="stroke: #000000; stroke-width: 0.8"/>
      </g>
     </g>
     <g id="text_1">
      <!-- 0.0 -->
      <g transform="translate(59.408845 400.076562) scale(0.1 -0.1)">
       <defs>
        <path id="DejaVuSans-30" d="M 2034 4250 
Q 1547 4250 1301 3770 
Q 1056 3291 1056 2328 
Q 1056 1369 1301 889 
Q 1547 409 2034 409 
Q 2525 409 2770 889 
Q 3016 1369 3016 2328 
Q 3016 3291 2770 3770 
Q 2525 4250 2034 4250 
z
M 2034 4750 
Q 2819 4750 3233 4129 
Q 3647 3509 3647 2328 
Q 3647 1150 3233 529 
Q 2819 -91 2034 -91 
Q 1250 -91 836 529 
Q 422 1150 422 2328 
Q 422 3509 836 4129 
Q 1250 4750 2034 4750 
z
" transform="scale(0.015625)"/>
        <path id="DejaVuSans-2e" d="M 684 794 
L 1344 794 
L 1344 0 
L 684 0 
L 684 794 
z
" transform="scale(0.015625)"/>
       </defs>
       <use xlink:href="#DejaVuSans-30"/>
       <use xlink:href="#DejaVuSans-2e" x="63.623047"/>
       <use xlink:href="#DejaVuSans-30" x="95.410156"/>
      </g>
     </g>
    </g>
    <g id="xtick_2">
     <g id="line2d_3">
      <path d="M 161.677039 385.478125 
L 161.677039 22.318125 
" clip-path="url(#pfc38936713)" style="fill: none; stroke: #b0b0b0; stroke-width: 0.8; stroke-linecap: square"/>
     </g>
     <g id="line2d_4">
      <g>
       <use xlink:href="#m028df03a2d" x="161.677039" y="385.478125" style="stroke: #000000; stroke-width: 0.8"/>
      </g>
     </g>
     <g id="text_2">
      <!-- 0.2 -->
      <g transform="translate(153.725477 400.076562) scale(0.1 -0.1)">
       <defs>
        <path id="DejaVuSans-32" d="M 1228 531 
L 3431 531 
L 3431 0 
L 469 0 
L 469 531 
Q 828 903 1448 1529 
Q 2069 2156 2228 2338 
Q 2531 2678 2651 2914 
Q 2772 3150 2772 3378 
Q 2772 3750 2511 3984 
Q 2250 4219 1831 4219 
Q 1534 4219 1204 4116 
Q 875 4013 500 3803 
L 500 4441 
Q 881 4594 1212 4672 
Q 1544 4750 1819 4750 
Q 2544 4750 2975 4387 
Q 3406 4025 3406 3419 
Q 3406 3131 3298 2873 
Q 3191 2616 2906 2266 
Q 2828 2175 2409 1742 
Q 1991 1309 1228 531 
z
" transform="scale(0.015625)"/>
       </defs>
       <use xlink:href="#DejaVuSans-30"/>
       <use xlink:href="#DejaVuSans-2e" x="63.623047"/>
       <use xlink:href="#DejaVuSans-32" x="95.410156"/>
      </g>
     </g>
    </g>
    <g id="xtick_3">
     <g id="line2d_5">
      <path d="M 255.993671 385.478125 
L 255.993671 22.318125 
" clip-path="url(#pfc38936713)" style="fill: none; stroke: #b0b0b0; stroke-width: 0.8; stroke-linecap: square"/>
     </g>
     <g id="line2d_6">
      <g>
       <use xlink:href="#m028df03a2d" x="255.993671" y="385.478125" style="stroke: #000000; stroke-width: 0.8"/>
      </g>
     </g>
     <g id="text_3">
      <!-- 0.4 -->
      <g transform="translate(248.042108 400.076562) scale(0.1 -0.1)">
       <defs>
        <path id="DejaVuSans-34" d="M 2419 4116 
L 825 1625 
L 2419 1625 
L 2419 4116 
z
M 2253 4666 
L 3047 4666 
L 3047 1625 
L 3713 1625 
L 3713 1100 
L 3047 1100 
L 3047 0 
L 2419 0 
L 2419 1100 
L 313 1100 
L 313 1709 
L 2253 4666 
z
" transform="scale(0.015625)"/>
       </defs>
       <use xlink:href="#DejaVuSans-30"/>
       <use xlink:href="#DejaVuSans-2e" x="63.623047"/>
       <use xlink:href="#DejaVuSans-34" x="95.410156"/>
      </g>
     </g>
    </g>
    <g id="xtick_4">
     <g id="line2d_7">
      <path d="M 350.310302 385.478125 
L 350.310302 22.318125 
" clip-path="url(#pfc38936713)" style="fill: none; stroke: #b0b0b0; stroke-width: 0.8; stroke-linecap: square"/>
     </g>
     <g id="line2d_8">
      <g>
       <use xlink:href="#m028df03a2d" x="350.310302" y="385.478125" style="stroke: #000000; stroke-width: 0.8"/>
      </g>
     </g>
     <g id="text_4">
      <!-- 0.6 -->
      <g transform="translate(342.35874 400.076562) scale(0.1 -0.1)">
       <defs>
        <path id="DejaVuSans-36" d="M 2113 2584 
Q 1688 2584 1439 2293 
Q 1191 2003 1191 1497 
Q 1191 994 1439 701 
Q 1688 409 2113 409 
Q 2538 409 2786 701 
Q 3034 994 3034 1497 
Q 3034 2003 2786 2293 
Q 2538 2584 2113 2584 
z
M 3366 4563 
L 3366 3988 
Q 3128 4100 2886 4159 
Q 2644 4219 2406 4219 
Q 1781 4219 1451 3797 
Q 1122 3375 1075 2522 
Q 1259 2794 1537 2939 
Q 1816 3084 2150 3084 
Q 2853 3084 3261 2657 
Q 3669 2231 3669 1497 
Q 3669 778 3244 343 
Q 2819 -91 2113 -91 
Q 1303 -91 875 529 
Q 447 1150 447 2328 
Q 447 3434 972 4092 
Q 1497 4750 2381 4750 
Q 2619 4750 2861 4703 
Q 3103 4656 3366 4563 
z
" transform="scale(0.015625)"/>
       </defs>
       <use xlink:href="#DejaVuSans-30"/>
       <use xlink:href="#DejaVuSans-2e" x="63.623047"/>
       <use xlink:href="#DejaVuSans-36" x="95.410156"/>
      </g>
     </g>
    </g>
    <g id="xtick_5">
     <g id="line2d_9">
      <path d="M 444.626934 385.478125 
L 444.626934 22.318125 
" clip-path="url(#pfc38936713)" style="fill: none; stroke: #b0b0b0; stroke-width: 0.8; stroke-linecap: square"/>
     </g>
     <g id="line2d_10">
      <g>
       <use xlink:href="#m028df03a2d" x="444.626934" y="385.478125" style="stroke: #000000; stroke-width: 0.8"/>
      </g>
     </g>
     <g id="text_5">
      <!-- 0.8 -->
      <g transform="translate(436.675371 400.076562) scale(0.1 -0.1)">
       <defs>
        <path id="DejaVuSans-38" d="M 2034 2216 
Q 1584 2216 1326 1975 
Q 1069 1734 1069 1313 
Q 1069 891 1326 650 
Q 1584 409 2034 409 
Q 2484 409 2743 651 
Q 3003 894 3003 1313 
Q 3003 1734 2745 1975 
Q 2488 2216 2034 2216 
z
M 1403 2484 
Q 997 2584 770 2862 
Q 544 3141 544 3541 
Q 544 4100 942 4425 
Q 1341 4750 2034 4750 
Q 2731 4750 3128 4425 
Q 3525 4100 3525 3541 
Q 3525 3141 3298 2862 
Q 3072 2584 2669 2484 
Q 3125 2378 3379 2068 
Q 3634 1759 3634 1313 
Q 3634 634 3220 271 
Q 2806 -91 2034 -91 
Q 1263 -91 848 271 
Q 434 634 434 1313 
Q 434 1759 690 2068 
Q 947 2378 1403 2484 
z
M 1172 3481 
Q 1172 3119 1398 2916 
Q 1625 2713 2034 2713 
Q 2441 2713 2670 2916 
Q 2900 3119 2900 3481 
Q 2900 3844 2670 4047 
Q 2441 4250 2034 4250 
Q 1625 4250 1398 4047 
Q 1172 3844 1172 3481 
z
" transform="scale(0.015625)"/>
       </defs>
       <use xlink:href="#DejaVuSans-30"/>
       <use xlink:href="#DejaVuSans-2e" x="63.623047"/>
       <use xlink:href="#DejaVuSans-38" x="95.410156"/>
      </g>
     </g>
    </g>
    <g id="xtick_6">
     <g id="line2d_11">
      <path d="M 538.943565 385.478125 
L 538.943565 22.318125 
" clip-path="url(#pfc38936713)" style="fill: none; stroke: #b0b0b0; stroke-width: 0.8; stroke-linecap: square"/>
     </g>
     <g id="line2d_12">
      <g>
       <use xlink:href="#m028df03a2d" x="538.943565" y="385.478125" style="stroke: #000000; stroke-width: 0.8"/>
      </g>
     </g>
     <g id="text_6">
      <!-- 1.0 -->
      <g transform="translate(530.992003 400.076562) scale(0.1 -0.1)">
       <defs>
        <path id="DejaVuSans-31" d="M 794 531 
L 1825 531 
L 1825 4091 
L 703 3866 
L 703 4441 
L 1819 4666 
L 2450 4666 
L 2450 531 
L 3481 531 
L 3481 0 
L 794 0 
L 794 531 
z
" transform="scale(0.015625)"/>
       </defs>
       <use xlink:href="#DejaVuSans-31"/>
       <use xlink:href="#DejaVuSans-2e" x="63.623047"/>
       <use xlink:href="#DejaVuSans-30" x="95.410156"/>
      </g>
     </g>
    </g>
    <g id="text_7">
     <!-- x -->
     <g transform="translate(300.192612 413.754687) scale(0.1 -0.1)">
      <defs>
       <path id="DejaVuSans-78" d="M 3513 3500 
L 2247 1797 
L 3578 0 
L 2900 0 
L 1881 1375 
L 863 0 
L 184 0 
L 1544 1831 
L 300 3500 
L 978 3500 
L 1906 2253 
L 2834 3500 
L 3513 3500 
z
" transform="scale(0.015625)"/>
      </defs>
      <use xlink:href="#DejaVuSans-78"/>
     </g>
    </g>
   </g>
   <g id="matplotlib.axis_2">
    <g id="ytick_1">
     <g id="line2d_13">
      <path d="M 43.78125 368.898848 
L 562.522723 368.898848 
" clip-path="url(#pfc38936713)" style="fill: none; stroke: #b0b0b0; stroke-width: 0.8; stroke-linecap: square"/>
     </g>
     <g id="line2d_14">
      <defs>
       <path id="ma5119034a7" d="M 0 0 
L -3.5 0 
" style="stroke: #000000; stroke-width: 0.8"/>
      </defs>
      <g>
       <use xlink:href="#ma5119034a7" x="43.78125" y="368.898848" style="stroke: #000000; stroke-width: 0.8"/>
      </g>
     </g>
     <g id="text_8">
      <!-- 0.0 -->
      <g transform="translate(20.878125 372.698066) scale(0.1 -0.1)">
       <use xlink:href="#DejaVuSans-30"/>
       <use xlink:href="#DejaVuSans-2e" x="63.623047"/>
       <use xlink:href="#DejaVuSans-30" x="95.410156"/>
      </g>
     </g>
    </g>
    <g id="ytick_2">
     <g id="line2d_15">
      <path d="M 43.78125 301.330525 
L 562.522723 301.330525 
" clip-path="url(#pfc38936713)" style="fill: none; stroke: #b0b0b0; stroke-width: 0.8; stroke-linecap: square"/>
     </g>
     <g id="line2d_16">
      <g>
       <use xlink:href="#ma5119034a7" x="43.78125" y="301.330525" style="stroke: #000000; stroke-width: 0.8"/>
      </g>
     </g>
     <g id="text_9">
      <!-- 0.2 -->
      <g transform="translate(20.878125 305.129744) scale(0.1 -0.1)">
       <use xlink:href="#DejaVuSans-30"/>
       <use xlink:href="#DejaVuSans-2e" x="63.623047"/>
       <use xlink:href="#DejaVuSans-32" x="95.410156"/>
      </g>
     </g>
    </g>
    <g id="ytick_3">
     <g id="line2d_17">
      <path d="M 43.78125 233.762203 
L 562.522723 233.762203 
" clip-path="url(#pfc38936713)" style="fill: none; stroke: #b0b0b0; stroke-width: 0.8; stroke-linecap: square"/>
     </g>
     <g id="line2d_18">
      <g>
       <use xlink:href="#ma5119034a7" x="43.78125" y="233.762203" style="stroke: #000000; stroke-width: 0.8"/>
      </g>
     </g>
     <g id="text_10">
      <!-- 0.4 -->
      <g transform="translate(20.878125 237.561421) scale(0.1 -0.1)">
       <use xlink:href="#DejaVuSans-30"/>
       <use xlink:href="#DejaVuSans-2e" x="63.623047"/>
       <use xlink:href="#DejaVuSans-34" x="95.410156"/>
      </g>
     </g>
    </g>
    <g id="ytick_4">
     <g id="line2d_19">
      <path d="M 43.78125 166.19388 
L 562.522723 166.19388 
" clip-path="url(#pfc38936713)" style="fill: none; stroke: #b0b0b0; stroke-width: 0.8; stroke-linecap: square"/>
     </g>
     <g id="line2d_20">
      <g>
       <use xlink:href="#ma5119034a7" x="43.78125" y="166.19388" style="stroke: #000000; stroke-width: 0.8"/>
      </g>
     </g>
     <g id="text_11">
      <!-- 0.6 -->
      <g transform="translate(20.878125 169.993099) scale(0.1 -0.1)">
       <use xlink:href="#DejaVuSans-30"/>
       <use xlink:href="#DejaVuSans-2e" x="63.623047"/>
       <use xlink:href="#DejaVuSans-36" x="95.410156"/>
      </g>
     </g>
    </g>
    <g id="ytick_5">
     <g id="line2d_21">
      <path d="M 43.78125 98.625557 
L 562.522723 98.625557 
" clip-path="url(#pfc38936713)" style="fill: none; stroke: #b0b0b0; stroke-width: 0.8; stroke-linecap: square"/>
     </g>
     <g id="line2d_22">
      <g>
       <use xlink:href="#ma5119034a7" x="43.78125" y="98.625557" style="stroke: #000000; stroke-width: 0.8"/>
      </g>
     </g>
     <g id="text_12">
      <!-- 0.8 -->
      <g transform="translate(20.878125 102.424776) scale(0.1 -0.1)">
       <use xlink:href="#DejaVuSans-30"/>
       <use xlink:href="#DejaVuSans-2e" x="63.623047"/>
       <use xlink:href="#DejaVuSans-38" x="95.410156"/>
      </g>
     </g>
    </g>
    <g id="ytick_6">
     <g id="line2d_23">
      <path d="M 43.78125 31.057235 
L 562.522723 31.057235 
" clip-path="url(#pfc38936713)" style="fill: none; stroke: #b0b0b0; stroke-width: 0.8; stroke-linecap: square"/>
     </g>
     <g id="line2d_24">
      <g>
       <use xlink:href="#ma5119034a7" x="43.78125" y="31.057235" style="stroke: #000000; stroke-width: 0.8"/>
      </g>
     </g>
     <g id="text_13">
      <!-- 1.0 -->
      <g transform="translate(20.878125 34.856454) scale(0.1 -0.1)">
       <use xlink:href="#DejaVuSans-31"/>
       <use xlink:href="#DejaVuSans-2e" x="63.623047"/>
       <use xlink:href="#DejaVuSans-30" x="95.410156"/>
      </g>
     </g>
    </g>
    <g id="text_14">
     <!-- u(x,t) -->
     <g transform="translate(14.798438 217.477031) rotate(-90) scale(0.1 -0.1)">
      <defs>
       <path id="DejaVuSans-75" d="M 544 1381 
L 544 3500 
L 1119 3500 
L 1119 1403 
Q 1119 906 1312 657 
Q 1506 409 1894 409 
Q 2359 409 2629 706 
Q 2900 1003 2900 1516 
L 2900 3500 
L 3475 3500 
L 3475 0 
L 2900 0 
L 2900 538 
Q 2691 219 2414 64 
Q 2138 -91 1772 -91 
Q 1169 -91 856 284 
Q 544 659 544 1381 
z
M 1991 3584 
L 1991 3584 
z
" transform="scale(0.015625)"/>
       <path id="DejaVuSans-28" d="M 1984 4856 
Q 1566 4138 1362 3434 
Q 1159 2731 1159 2009 
Q 1159 1288 1364 580 
Q 1569 -128 1984 -844 
L 1484 -844 
Q 1016 -109 783 600 
Q 550 1309 550 2009 
Q 550 2706 781 3412 
Q 1013 4119 1484 4856 
L 1984 4856 
z
" transform="scale(0.015625)"/>
       <path id="DejaVuSans-2c" d="M 750 794 
L 1409 794 
L 1409 256 
L 897 -744 
L 494 -744 
L 750 256 
L 750 794 
z
" transform="scale(0.015625)"/>
       <path id="DejaVuSans-74" d="M 1172 4494 
L 1172 3500 
L 2356 3500 
L 2356 3053 
L 1172 3053 
L 1172 1153 
Q 1172 725 1289 603 
Q 1406 481 1766 481 
L 2356 481 
L 2356 0 
L 1766 0 
Q 1100 0 847 248 
Q 594 497 594 1153 
L 594 3053 
L 172 3053 
L 172 3500 
L 594 3500 
L 594 4494 
L 1172 4494 
z
" transform="scale(0.015625)"/>
       <path id="DejaVuSans-29" d="M 513 4856 
L 1013 4856 
Q 1481 4119 1714 3412 
Q 1947 2706 1947 2009 
Q 1947 1309 1714 600 
Q 1481 -109 1013 -844 
L 513 -844 
Q 928 -128 1133 580 
Q 1338 1288 1338 2009 
Q 1338 2731 1133 3434 
Q 928 4138 513 4856 
z
" transform="scale(0.015625)"/>
      </defs>
      <use xlink:href="#DejaVuSans-75"/>
      <use xlink:href="#DejaVuSans-28" x="63.378906"/>
      <use xlink:href="#DejaVuSans-78" x="102.392578"/>
      <use xlink:href="#DejaVuSans-2c" x="161.572266"/>
      <use xlink:href="#DejaVuSans-74" x="193.359375"/>
      <use xlink:href="#DejaVuSans-29" x="232.568359"/>
     </g>
    </g>
   </g>
   <g id="line2d_25">
    <path d="M 67.360408 368.898848 
L 72.123874 358.443682 
L 76.88734 347.999042 
L 81.650807 337.575446 
L 86.414273 327.183394 
L 91.177739 316.833347 
L 95.941205 306.535714 
L 100.704672 296.300888 
L 105.468138 286.139159 
L 110.231604 276.060747 
L 114.99507 266.07584 
L 119.758536 256.194458 
L 124.522003 246.426547 
L 129.285469 236.781975 
L 134.048935 227.270427 
L 138.812401 217.901479 
L 143.575868 208.684575 
L 148.339334 199.628988 
L 153.1028 190.74387 
L 157.866266 182.038111 
L 162.629733 173.520512 
L 167.393199 165.199651 
L 172.156665 157.083885 
L 176.920131 149.181389 
L 181.683598 141.500137 
L 186.447064 134.047882 
L 191.21053 126.832055 
L 195.973996 119.860006 
L 200.737462 113.138722 
L 205.500929 106.674949 
L 210.264395 100.475211 
L 215.027861 94.545771 
L 219.791327 88.89257 
L 224.554794 83.521306 
L 229.31826 78.437396 
L 234.081726 73.645954 
L 238.845192 69.151815 
L 243.608659 64.959507 
L 248.372125 61.073241 
L 253.135591 57.496902 
L 257.899057 54.234136 
L 262.662524 51.288204 
L 267.42599 48.662066 
L 272.189456 46.358401 
L 276.952922 44.379485 
L 281.716388 42.727371 
L 286.479855 41.403629 
L 291.243321 40.409691 
L 296.006787 39.746501 
L 300.770253 39.414745 
L 305.53372 39.414745 
L 310.297186 39.746501 
L 315.060652 40.409691 
L 319.824118 41.40365 
L 324.587585 42.727371 
L 329.351051 44.379505 
L 334.114517 46.358401 
L 338.877983 48.662086 
L 343.64145 51.288204 
L 348.404916 54.234136 
L 353.168382 57.496902 
L 357.931848 61.073241 
L 362.695314 64.959507 
L 367.458781 69.151815 
L 372.222247 73.645975 
L 376.985713 78.437416 
L 381.749179 83.521326 
L 386.512646 88.89259 
L 391.276112 94.545791 
L 396.039578 100.475251 
L 400.803044 106.674989 
L 405.566511 113.138762 
L 410.329977 119.860066 
L 415.093443 126.832055 
L 419.856909 134.047862 
L 424.620376 141.500137 
L 429.383842 149.181368 
L 434.147308 157.083945 
L 438.910774 165.199712 
L 443.67424 173.520512 
L 448.437707 182.038111 
L 453.201173 190.74389 
L 457.964639 199.629008 
L 462.728105 208.684595 
L 467.491572 217.901509 
L 472.255038 227.270457 
L 477.018504 236.782025 
L 481.78197 246.426607 
L 486.545437 256.194508 
L 491.308903 266.075901 
L 496.072369 276.060817 
L 500.835835 286.139149 
L 505.599302 296.300883 
L 510.362768 306.535719 
L 515.126234 316.833352 
L 519.8897 327.183404 
L 524.653166 337.575539 
L 529.416633 347.999062 
L 534.180099 358.443705 
L 538.943565 368.898876 
" clip-path="url(#pfc38936713)" style="fill: none; stroke: #000000; stroke-width: 2; stroke-linecap: square"/>
   </g>
   <g id="line2d_26">
    <path d="M 67.360408 368.769408 
L 72.123874 358.294218 
L 76.88734 347.816656 
L 81.650807 337.352822 
L 86.414273 326.91773 
L 91.177739 316.525181 
L 95.941205 306.188045 
L 100.704672 295.918322 
L 105.468138 285.727273 
L 110.231604 275.625799 
L 114.99507 265.624179 
L 119.758536 255.732295 
L 124.522003 245.959843 
L 129.285469 236.316208 
L 134.048935 226.810822 
L 138.812401 217.452556 
L 143.575868 208.250483 
L 148.339334 199.213321 
L 153.1028 190.349649 
L 157.866266 181.668075 
L 162.629733 173.176795 
L 167.393199 164.883965 
L 172.156665 156.797477 
L 176.920131 148.924945 
L 181.683598 141.273959 
L 186.447064 133.851668 
L 191.21053 126.664858 
L 195.973996 119.720457 
L 200.737462 113.024747 
L 205.500929 106.583869 
L 210.264395 100.403886 
L 215.027861 94.490274 
L 219.791327 88.848812 
L 224.554794 83.484254 
L 229.31826 78.401995 
L 234.081726 73.606728 
L 238.845192 69.103063 
L 243.608659 64.895532 
L 248.372125 60.988163 
L 253.135591 57.385283 
L 257.899057 54.09068 
L 262.662524 51.108159 
L 267.42599 48.441466 
L 272.189456 46.093661 
L 276.952922 44.067926 
L 281.716388 42.367524 
L 286.479855 40.994568 
L 291.243321 39.952139 
L 296.006787 39.241829 
L 300.770253 38.865813 
L 305.53372 38.825398 
L 310.297186 39.121249 
L 315.060652 39.754556 
L 319.824118 40.725277 
L 324.587585 42.032969 
L 329.351051 43.677049 
L 334.114517 45.656126 
L 338.877983 47.968772 
L 343.64145 50.612489 
L 348.404916 53.584418 
L 353.168382 56.881296 
L 357.931848 60.49952 
L 362.695314 64.434497 
L 367.458781 68.681617 
L 372.222247 73.235604 
L 376.985713 78.09092 
L 381.749179 83.241282 
L 386.512646 88.680186 
L 391.276112 94.401188 
L 396.039578 100.396737 
L 400.803044 106.659745 
L 405.566511 113.182137 
L 410.329977 119.956663 
L 415.093443 126.974604 
L 419.856909 134.228349 
L 424.620376 141.709037 
L 429.383842 149.408775 
L 434.147308 157.318601 
L 438.910774 165.4303 
L 443.67424 173.735454 
L 448.437707 182.225264 
L 453.201173 190.891695 
L 457.964639 199.726169 
L 462.728105 208.720177 
L 467.491572 217.865988 
L 472.255038 227.155153 
L 477.018504 236.580142 
L 481.78197 246.13286 
L 486.545437 255.805473 
L 491.308903 265.591134 
L 496.072369 275.481709 
L 500.835835 285.470699 
L 505.599302 295.550797 
L 510.362768 305.715486 
L 515.126234 315.957723 
L 519.8897 326.271787 
L 524.653166 336.650663 
L 529.416633 347.088741 
L 534.180099 357.580111 
L 538.943565 368.119297 
" clip-path="url(#pfc38936713)" style="fill: none; stroke-dasharray: 5.55,2.4; stroke-dashoffset: 0; stroke: #1f77b4; stroke-width: 1.5"/>
   </g>
   <g id="line2d_27">
    <path d="M 67.360408 368.970852 
L 72.123874 358.527242 
L 76.88734 348.083994 
L 81.650807 337.653072 
L 86.414273 327.245914 
L 91.177739 316.874315 
L 95.941205 306.549921 
L 100.704672 296.284144 
L 105.468138 286.088565 
L 110.231604 275.97444 
L 114.99507 265.953005 
L 119.758536 256.035326 
L 124.522003 246.232145 
L 129.285469 236.554498 
L 134.048935 227.012735 
L 138.812401 217.616985 
L 143.575868 208.377457 
L 148.339334 199.303958 
L 153.1028 190.406073 
L 157.866266 181.692944 
L 162.629733 173.173614 
L 167.393199 164.85676 
L 172.156665 156.750639 
L 176.920131 148.863406 
L 181.683598 141.202614 
L 186.447064 133.77555 
L 191.21053 126.589425 
L 195.973996 119.650944 
L 200.737462 112.966309 
L 205.500929 106.541501 
L 210.264395 100.382198 
L 215.027861 94.49408 
L 219.791327 88.881897 
L 224.554794 83.550726 
L 229.31826 78.504995 
L 234.081726 73.749096 
L 238.845192 69.286531 
L 243.608659 65.122032 
L 248.372125 61.258481 
L 253.135591 57.699621 
L 257.899057 54.448453 
L 262.662524 51.508079 
L 267.42599 48.881599 
L 272.189456 46.571289 
L 276.952922 44.580049 
L 281.716388 42.909711 
L 286.479855 41.563134 
L 291.243321 40.54191 
L 296.006787 39.847669 
L 300.770253 39.482224 
L 305.53372 39.446461 
L 310.297186 39.741789 
L 315.060652 40.368531 
L 319.824118 41.327089 
L 324.587585 42.617504 
L 329.351051 44.239554 
L 334.114517 46.19201 
L 338.877983 48.473907 
L 343.64145 51.083673 
L 348.404916 54.018872 
L 353.168382 57.277067 
L 357.931848 60.855359 
L 362.695314 64.749701 
L 367.458781 68.956507 
L 372.222247 73.470743 
L 376.985713 78.287637 
L 381.749179 83.401854 
L 386.512646 88.807592 
L 391.276112 94.498389 
L 396.039578 100.467438 
L 400.803044 106.708094 
L 405.566511 113.212745 
L 410.329977 119.973739 
L 415.093443 126.983163 
L 419.856909 134.233081 
L 424.620376 141.715179 
L 429.383842 149.420676 
L 434.147308 157.341476 
L 438.910774 165.468177 
L 443.67424 173.792381 
L 448.437707 182.305469 
L 453.201173 190.998421 
L 457.964639 199.862375 
L 462.728105 208.888673 
L 467.491572 218.068354 
L 472.255038 227.393464 
L 477.018504 236.85476 
L 481.78197 246.444449 
L 486.545437 256.153751 
L 491.308903 265.975045 
L 496.072369 275.900044 
L 500.835835 285.921207 
L 505.599302 296.030681 
L 510.362768 306.221306 
L 515.126234 316.485743 
L 519.8897 326.817123 
L 524.653166 337.208463 
L 529.416633 347.653312 
L 534.180099 358.144753 
L 538.943565 368.677383 
" clip-path="url(#pfc38936713)" style="fill: none; stroke-dasharray: 9.6,2.4,1.5,2.4; stroke-dashoffset: 0; stroke: #ff7f0e; stroke-width: 1.5"/>
   </g>
   <g id="line2d_28">
    <path d="M 67.360408 368.499773 
L 72.123874 358.08139 
L 76.88734 347.656547 
L 81.650807 337.240171 
L 86.414273 326.846636 
L 91.177739 316.489856 
L 95.941205 306.18297 
L 100.704672 295.938821 
L 105.468138 285.769672 
L 110.231604 275.687167 
L 114.99507 265.702602 
L 119.758536 255.826727 
L 124.522003 246.070073 
L 129.285469 236.442527 
L 134.048935 226.953703 
L 138.812401 217.612927 
L 143.575868 208.429188 
L 148.339334 199.410724 
L 153.1028 190.566242 
L 157.866266 181.903939 
L 162.629733 173.431386 
L 167.393199 165.156256 
L 172.156665 157.08614 
L 176.920131 149.227985 
L 181.683598 141.589021 
L 186.447064 134.176034 
L 191.21053 126.995668 
L 195.973996 120.054609 
L 200.737462 113.359261 
L 205.500929 106.915605 
L 210.264395 100.730144 
L 215.027861 94.808578 
L 219.791327 89.156968 
L 224.554794 83.78069 
L 229.31826 78.685402 
L 234.081726 73.876683 
L 238.845192 69.359467 
L 243.608659 65.139088 
L 248.372125 61.219959 
L 253.135591 57.607152 
L 257.899057 54.304837 
L 262.662524 51.31702 
L 267.42599 48.647809 
L 272.189456 46.30087 
L 276.952922 44.279243 
L 281.716388 42.585969 
L 286.479855 41.223746 
L 291.243321 40.194628 
L 296.006787 39.50073 
L 300.770253 39.14332 
L 305.53372 39.123384 
L 310.297186 39.441507 
L 315.060652 40.097891 
L 319.824118 41.092111 
L 324.587585 42.423303 
L 329.351051 44.090117 
L 334.114517 46.090943 
L 338.877983 48.423222 
L 343.64145 51.084559 
L 348.404916 54.071369 
L 353.168382 57.380289 
L 357.931848 61.007172 
L 362.695314 64.947103 
L 367.458781 69.195612 
L 372.222247 73.747183 
L 376.985713 78.596055 
L 381.749179 83.736308 
L 386.512646 89.161479 
L 391.276112 94.864921 
L 396.039578 100.839991 
L 400.803044 107.079338 
L 405.566511 113.575592 
L 410.329977 120.321504 
L 415.093443 127.309159 
L 419.856909 134.530907 
L 424.620376 141.978892 
L 429.383842 149.645343 
L 434.147308 157.522024 
L 438.910774 165.601 
L 443.67424 173.874218 
L 448.437707 182.333883 
L 453.201173 190.972021 
L 457.964639 199.780498 
L 462.728105 208.751691 
L 467.491572 217.877365 
L 472.255038 227.150804 
L 477.018504 236.563801 
L 481.78197 246.109008 
L 486.545437 255.779234 
L 491.308903 265.567312 
L 496.072369 275.466244 
L 500.835835 285.469037 
L 505.599302 295.568991 
L 510.362768 305.759707 
L 515.126234 316.034938 
L 519.8897 326.387842 
L 524.653166 336.813052 
L 529.416633 347.304279 
L 534.180099 357.855923 
L 538.943565 368.462582 
" clip-path="url(#pfc38936713)" style="fill: none; stroke-dasharray: 1.5,2.475; stroke-dashoffset: 0; stroke: #2ca02c; stroke-width: 1.5"/>
   </g>
   <g id="patch_3">
    <path d="M 43.78125 385.478125 
L 43.78125 22.318125 
" style="fill: none; stroke: #000000; stroke-width: 0.8; stroke-linejoin: miter; stroke-linecap: square"/>
   </g>
   <g id="patch_4">
    <path d="M 562.522723 385.478125 
L 562.522723 22.318125 
" style="fill: none; stroke: #000000; stroke-width: 0.8; stroke-linejoin: miter; stroke-linecap: square"/>
   </g>
   <g id="patch_5">
    <path d="M 43.78125 385.478125 
L 562.522723 385.478125 
" style="fill: none; stroke: #000000; stroke-width: 0.8; stroke-linejoin: miter; stroke-linecap: square"/>
   </g>
   <g id="patch_6">
    <path d="M 43.78125 22.318125 
L 562.522723 22.318125 
" style="fill: none; stroke: #000000; stroke-width: 0.8; stroke-linejoin: miter; stroke-linecap: square"/>
   </g>
   <g id="text_15">
    <!-- Solution Comparison at t = 0.25 -->
    <g transform="translate(206.482612 16.318125) scale(0.12 -0.12)">
     <defs>
      <path id="DejaVuSans-53" d="M 3425 4513 
L 3425 3897 
Q 3066 4069 2747 4153 
Q 2428 4238 2131 4238 
Q 1616 4238 1336 4038 
Q 1056 3838 1056 3469 
Q 1056 3159 1242 3001 
Q 1428 2844 1947 2747 
L 2328 2669 
Q 3034 2534 3370 2195 
Q 3706 1856 3706 1288 
Q 3706 609 3251 259 
Q 2797 -91 1919 -91 
Q 1588 -91 1214 -16 
Q 841 59 441 206 
L 441 856 
Q 825 641 1194 531 
Q 1563 422 1919 422 
Q 2459 422 2753 634 
Q 3047 847 3047 1241 
Q 3047 1584 2836 1778 
Q 2625 1972 2144 2069 
L 1759 2144 
Q 1053 2284 737 2584 
Q 422 2884 422 3419 
Q 422 4038 858 4394 
Q 1294 4750 2059 4750 
Q 2388 4750 2728 4690 
Q 3069 4631 3425 4513 
z
" transform="scale(0.015625)"/>
      <path id="DejaVuSans-6f" d="M 1959 3097 
Q 1497 3097 1228 2736 
Q 959 2375 959 1747 
Q 959 1119 1226 758 
Q 1494 397 1959 397 
Q 2419 397 2687 759 
Q 2956 1122 2956 1747 
Q 2956 2369 2687 2733 
Q 2419 3097 1959 3097 
z
M 1959 3584 
Q 2709 3584 3137 3096 
Q 3566 2609 3566 1747 
Q 3566 888 3137 398 
Q 2709 -91 1959 -91 
Q 1206 -91 779 398 
Q 353 888 353 1747 
Q 353 2609 779 3096 
Q 1206 3584 1959 3584 
z
" transform="scale(0.015625)"/>
      <path id="DejaVuSans-6c" d="M 603 4863 
L 1178 4863 
L 1178 0 
L 603 0 
L 603 4863 
z
" transform="scale(0.015625)"/>
      <path id="DejaVuSans-69" d="M 603 3500 
L 1178 3500 
L 1178 0 
L 603 0 
L 603 3500 
z
M 603 4863 
L 1178 4863 
L 1178 4134 
L 603 4134 
L 603 4863 
z
" transform="scale(0.015625)"/>
      <path id="DejaVuSans-6e" d="M 3513 2113 
L 3513 0 
L 2938 0 
L 2938 2094 
Q 2938 2591 2744 2837 
Q 2550 3084 2163 3084 
Q 1697 3084 1428 2787 
Q 1159 2491 1159 1978 
L 1159 0 
L 581 0 
L 581 3500 
L 1159 3500 
L 1159 2956 
Q 1366 3272 1645 3428 
Q 1925 3584 2291 3584 
Q 2894 3584 3203 3211 
Q 3513 2838 3513 2113 
z
" transform="scale(0.015625)"/>
      <path id="DejaVuSans-20" transform="scale(0.015625)"/>
      <path id="DejaVuSans-43" d="M 4122 4306 
L 4122 3641 
Q 3803 3938 3442 4084 
Q 3081 4231 2675 4231 
Q 1875 4231 1450 3742 
Q 1025 3253 1025 2328 
Q 1025 1406 1450 917 
Q 1875 428 2675 428 
Q 3081 428 3442 575 
Q 3803 722 4122 1019 
L 4122 359 
Q 3791 134 3420 21 
Q 3050 -91 2638 -91 
Q 1578 -91 968 557 
Q 359 1206 359 2328 
Q 359 3453 968 4101 
Q 1578 4750 2638 4750 
Q 3056 4750 3426 4639 
Q 3797 4528 4122 4306 
z
" transform="scale(0.015625)"/>
      <path id="DejaVuSans-6d" d="M 3328 2828 
Q 3544 3216 3844 3400 
Q 4144 3584 4550 3584 
Q 5097 3584 5394 3201 
Q 5691 2819 5691 2113 
L 5691 0 
L 5113 0 
L 5113 2094 
Q 5113 2597 4934 2840 
Q 4756 3084 4391 3084 
Q 3944 3084 3684 2787 
Q 3425 2491 3425 1978 
L 3425 0 
L 2847 0 
L 2847 2094 
Q 2847 2600 2669 2842 
Q 2491 3084 2119 3084 
Q 1678 3084 1418 2786 
Q 1159 2488 1159 1978 
L 1159 0 
L 581 0 
L 581 3500 
L 1159 3500 
L 1159 2956 
Q 1356 3278 1631 3431 
Q 1906 3584 2284 3584 
Q 2666 3584 2933 3390 
Q 3200 3197 3328 2828 
z
" transform="scale(0.015625)"/>
      <path id="DejaVuSans-70" d="M 1159 525 
L 1159 -1331 
L 581 -1331 
L 581 3500 
L 1159 3500 
L 1159 2969 
Q 1341 3281 1617 3432 
Q 1894 3584 2278 3584 
Q 2916 3584 3314 3078 
Q 3713 2572 3713 1747 
Q 3713 922 3314 415 
Q 2916 -91 2278 -91 
Q 1894 -91 1617 61 
Q 1341 213 1159 525 
z
M 3116 1747 
Q 3116 2381 2855 2742 
Q 2594 3103 2138 3103 
Q 1681 3103 1420 2742 
Q 1159 2381 1159 1747 
Q 1159 1113 1420 752 
Q 1681 391 2138 391 
Q 2594 391 2855 752 
Q 3116 1113 3116 1747 
z
" transform="scale(0.015625)"/>
      <path id="DejaVuSans-61" d="M 2194 1759 
Q 1497 1759 1228 1600 
Q 959 1441 959 1056 
Q 959 750 1161 570 
Q 1363 391 1709 391 
Q 2188 391 2477 730 
Q 2766 1069 2766 1631 
L 2766 1759 
L 2194 1759 
z
M 3341 1997 
L 3341 0 
L 2766 0 
L 2766 531 
Q 2569 213 2275 61 
Q 1981 -91 1556 -91 
Q 1019 -91 701 211 
Q 384 513 384 1019 
Q 384 1609 779 1909 
Q 1175 2209 1959 2209 
L 2766 2209 
L 2766 2266 
Q 2766 2663 2505 2880 
Q 2244 3097 1772 3097 
Q 1472 3097 1187 3025 
Q 903 2953 641 2809 
L 641 3341 
Q 956 3463 1253 3523 
Q 1550 3584 1831 3584 
Q 2591 3584 2966 3190 
Q 3341 2797 3341 1997 
z
" transform="scale(0.015625)"/>
      <path id="DejaVuSans-72" d="M 2631 2963 
Q 2534 3019 2420 3045 
Q 2306 3072 2169 3072 
Q 1681 3072 1420 2755 
Q 1159 2438 1159 1844 
L 1159 0 
L 581 0 
L 581 3500 
L 1159 3500 
L 1159 2956 
Q 1341 3275 1631 3429 
Q 1922 3584 2338 3584 
Q 2397 3584 2469 3576 
Q 2541 3569 2628 3553 
L 2631 2963 
z
" transform="scale(0.015625)"/>
      <path id="DejaVuSans-73" d="M 2834 3397 
L 2834 2853 
Q 2591 2978 2328 3040 
Q 2066 3103 1784 3103 
Q 1356 3103 1142 2972 
Q 928 2841 928 2578 
Q 928 2378 1081 2264 
Q 1234 2150 1697 2047 
L 1894 2003 
Q 2506 1872 2764 1633 
Q 3022 1394 3022 966 
Q 3022 478 2636 193 
Q 2250 -91 1575 -91 
Q 1294 -91 989 -36 
Q 684 19 347 128 
L 347 722 
Q 666 556 975 473 
Q 1284 391 1588 391 
Q 1994 391 2212 530 
Q 2431 669 2431 922 
Q 2431 1156 2273 1281 
Q 2116 1406 1581 1522 
L 1381 1569 
Q 847 1681 609 1914 
Q 372 2147 372 2553 
Q 372 3047 722 3315 
Q 1072 3584 1716 3584 
Q 2034 3584 2315 3537 
Q 2597 3491 2834 3397 
z
" transform="scale(0.015625)"/>
      <path id="DejaVuSans-3d" d="M 678 2906 
L 4684 2906 
L 4684 2381 
L 678 2381 
L 678 2906 
z
M 678 1631 
L 4684 1631 
L 4684 1100 
L 678 1100 
L 678 1631 
z
" transform="scale(0.015625)"/>
      <path id="DejaVuSans-35" d="M 691 4666 
L 3169 4666 
L 3169 4134 
L 1269 4134 
L 1269 2991 
Q 1406 3038 1543 3061 
Q 1681 3084 1819 3084 
Q 2600 3084 3056 2656 
Q 3513 2228 3513 1497 
Q 3513 744 3044 326 
Q 2575 -91 1722 -91 
Q 1428 -91 1123 -41 
Q 819 9 494 109 
L 494 744 
Q 775 591 1075 516 
Q 1375 441 1709 441 
Q 2250 441 2565 725 
Q 2881 1009 2881 1497 
Q 2881 1984 2565 2268 
Q 2250 2553 1709 2553 
Q 1456 2553 1204 2497 
Q 953 2441 691 2322 
L 691 4666 
z
" transform="scale(0.015625)"/>
     </defs>
     <use xlink:href="#DejaVuSans-53"/>
     <use xlink:href="#DejaVuSans-6f" x="63.476562"/>
     <use xlink:href="#DejaVuSans-6c" x="124.658203"/>
     <use xlink:href="#DejaVuSans-75" x="152.441406"/>
     <use xlink:href="#DejaVuSans-74" x="215.820312"/>
     <use xlink:href="#DejaVuSans-69" x="255.029297"/>
     <use xlink:href="#DejaVuSans-6f" x="282.8125"/>
     <use xlink:href="#DejaVuSans-6e" x="343.994141"/>
     <use xlink:href="#DejaVuSans-20" x="407.373047"/>
     <use xlink:href="#DejaVuSans-43" x="439.160156"/>
     <use xlink:href="#DejaVuSans-6f" x="508.984375"/>
     <use xlink:href="#DejaVuSans-6d" x="570.166016"/>
     <use xlink:href="#DejaVuSans-70" x="667.578125"/>
     <use xlink:href="#DejaVuSans-61" x="731.054688"/>
     <use xlink:href="#DejaVuSans-72" x="792.333984"/>
     <use xlink:href="#DejaVuSans-69" x="833.447266"/>
     <use xlink:href="#DejaVuSans-73" x="861.230469"/>
     <use xlink:href="#DejaVuSans-6f" x="913.330078"/>
     <use xlink:href="#DejaVuSans-6e" x="974.511719"/>
     <use xlink:href="#DejaVuSans-20" x="1037.890625"/>
     <use xlink:href="#DejaVuSans-61" x="1069.677734"/>
     <use xlink:href="#DejaVuSans-74" x="1130.957031"/>
     <use xlink:href="#DejaVuSans-20" x="1170.166016"/>
     <use xlink:href="#DejaVuSans-74" x="1201.953125"/>
     <use xlink:href="#DejaVuSans-20" x="1241.162109"/>
     <use xlink:href="#DejaVuSans-3d" x="1272.949219"/>
     <use xlink:href="#DejaVuSans-20" x="1356.738281"/>
     <use xlink:href="#DejaVuSans-30" x="1388.525391"/>
     <use xlink:href="#DejaVuSans-2e" x="1452.148438"/>
     <use xlink:href="#DejaVuSans-32" x="1483.935547"/>
     <use xlink:href="#DejaVuSans-35" x="1547.558594"/>
    </g>
   </g>
   <g id="legend_1">
    <g id="patch_7">
     <path d="M 397.939911 89.030625 
L 555.522723 89.030625 
Q 557.522723 89.030625 557.522723 87.030625 
L 557.522723 29.318125 
Q 557.522723 27.318125 555.522723 27.318125 
L 397.939911 27.318125 
Q 395.939911 27.318125 395.939911 29.318125 
L 395.939911 87.030625 
Q 395.939911 89.030625 397.939911 89.030625 
z
" style="fill: #ffffff; opacity: 0.8; stroke: #cccccc; stroke-linejoin: miter"/>
    </g>
    <g id="line2d_29">
     <path d="M 399.939911 35.416562 
L 409.939911 35.416562 
L 419.939911 35.416562 
" style="fill: none; stroke: #000000; stroke-width: 2; stroke-linecap: square"/>
    </g>
    <g id="text_16">
     <!-- Analytical Solution -->
     <g transform="translate(427.939911 38.916562) scale(0.1 -0.1)">
      <defs>
       <path id="DejaVuSans-41" d="M 2188 4044 
L 1331 1722 
L 3047 1722 
L 2188 4044 
z
M 1831 4666 
L 2547 4666 
L 4325 0 
L 3669 0 
L 3244 1197 
L 1141 1197 
L 716 0 
L 50 0 
L 1831 4666 
z
" transform="scale(0.015625)"/>
       <path id="DejaVuSans-79" d="M 2059 -325 
Q 1816 -950 1584 -1140 
Q 1353 -1331 966 -1331 
L 506 -1331 
L 506 -850 
L 844 -850 
Q 1081 -850 1212 -737 
Q 1344 -625 1503 -206 
L 1606 56 
L 191 3500 
L 800 3500 
L 1894 763 
L 2988 3500 
L 3597 3500 
L 2059 -325 
z
" transform="scale(0.015625)"/>
       <path id="DejaVuSans-63" d="M 3122 3366 
L 3122 2828 
Q 2878 2963 2633 3030 
Q 2388 3097 2138 3097 
Q 1578 3097 1268 2742 
Q 959 2388 959 1747 
Q 959 1106 1268 751 
Q 1578 397 2138 397 
Q 2388 397 2633 464 
Q 2878 531 3122 666 
L 3122 134 
Q 2881 22 2623 -34 
Q 2366 -91 2075 -91 
Q 1284 -91 818 406 
Q 353 903 353 1747 
Q 353 2603 823 3093 
Q 1294 3584 2113 3584 
Q 2378 3584 2631 3529 
Q 2884 3475 3122 3366 
z
" transform="scale(0.015625)"/>
      </defs>
      <use xlink:href="#DejaVuSans-41"/>
      <use xlink:href="#DejaVuSans-6e" x="68.408203"/>
      <use xlink:href="#DejaVuSans-61" x="131.787109"/>
      <use xlink:href="#DejaVuSans-6c" x="193.066406"/>
      <use xlink:href="#DejaVuSans-79" x="220.849609"/>
      <use xlink:href="#DejaVuSans-74" x="280.029297"/>
      <use xlink:href="#DejaVuSans-69" x="319.238281"/>
      <use xlink:href="#DejaVuSans-63" x="347.021484"/>
      <use xlink:href="#DejaVuSans-61" x="402.001953"/>
      <use xlink:href="#DejaVuSans-6c" x="463.28125"/>
      <use xlink:href="#DejaVuSans-20" x="491.064453"/>
      <use xlink:href="#DejaVuSans-53" x="522.851562"/>
      <use xlink:href="#DejaVuSans-6f" x="586.328125"/>
      <use xlink:href="#DejaVuSans-6c" x="647.509766"/>
      <use xlink:href="#DejaVuSans-75" x="675.292969"/>
      <use xlink:href="#DejaVuSans-74" x="738.671875"/>
      <use xlink:href="#DejaVuSans-69" x="777.880859"/>
      <use xlink:href="#DejaVuSans-6f" x="805.664062"/>
      <use xlink:href="#DejaVuSans-6e" x="866.845703"/>
     </g>
    </g>
    <g id="line2d_30">
     <path d="M 399.939911 50.094688 
L 409.939911 50.094688 
L 419.939911 50.094688 
" style="fill: none; stroke-dasharray: 5.55,2.4; stroke-dashoffset: 0; stroke: #1f77b4; stroke-width: 1.5"/>
    </g>
    <g id="text_17">
     <!-- Model A: Adam Only -->
     <g transform="translate(427.939911 53.594688) scale(0.1 -0.1)">
      <defs>
       <path id="DejaVuSans-4d" d="M 628 4666 
L 1569 4666 
L 2759 1491 
L 3956 4666 
L 4897 4666 
L 4897 0 
L 4281 0 
L 4281 4097 
L 3078 897 
L 2444 897 
L 1241 4097 
L 1241 0 
L 628 0 
L 628 4666 
z
" transform="scale(0.015625)"/>
       <path id="DejaVuSans-64" d="M 2906 2969 
L 2906 4863 
L 3481 4863 
L 3481 0 
L 2906 0 
L 2906 525 
Q 2725 213 2448 61 
Q 2172 -91 1784 -91 
Q 1150 -91 751 415 
Q 353 922 353 1747 
Q 353 2572 751 3078 
Q 1150 3584 1784 3584 
Q 2172 3584 2448 3432 
Q 2725 3281 2906 2969 
z
M 947 1747 
Q 947 1113 1208 752 
Q 1469 391 1925 391 
Q 2381 391 2643 752 
Q 2906 1113 2906 1747 
Q 2906 2381 2643 2742 
Q 2381 3103 1925 3103 
Q 1469 3103 1208 2742 
Q 947 2381 947 1747 
z
" transform="scale(0.015625)"/>
       <path id="DejaVuSans-65" d="M 3597 1894 
L 3597 1613 
L 953 1613 
Q 991 1019 1311 708 
Q 1631 397 2203 397 
Q 2534 397 2845 478 
Q 3156 559 3463 722 
L 3463 178 
Q 3153 47 2828 -22 
Q 2503 -91 2169 -91 
Q 1331 -91 842 396 
Q 353 884 353 1716 
Q 353 2575 817 3079 
Q 1281 3584 2069 3584 
Q 2775 3584 3186 3129 
Q 3597 2675 3597 1894 
z
M 3022 2063 
Q 3016 2534 2758 2815 
Q 2500 3097 2075 3097 
Q 1594 3097 1305 2825 
Q 1016 2553 972 2059 
L 3022 2063 
z
" transform="scale(0.015625)"/>
       <path id="DejaVuSans-3a" d="M 750 794 
L 1409 794 
L 1409 0 
L 750 0 
L 750 794 
z
M 750 3309 
L 1409 3309 
L 1409 2516 
L 750 2516 
L 750 3309 
z
" transform="scale(0.015625)"/>
       <path id="DejaVuSans-4f" d="M 2522 4238 
Q 1834 4238 1429 3725 
Q 1025 3213 1025 2328 
Q 1025 1447 1429 934 
Q 1834 422 2522 422 
Q 3209 422 3611 934 
Q 4013 1447 4013 2328 
Q 4013 3213 3611 3725 
Q 3209 4238 2522 4238 
z
M 2522 4750 
Q 3503 4750 4090 4092 
Q 4678 3434 4678 2328 
Q 4678 1225 4090 567 
Q 3503 -91 2522 -91 
Q 1538 -91 948 565 
Q 359 1222 359 2328 
Q 359 3434 948 4092 
Q 1538 4750 2522 4750 
z
" transform="scale(0.015625)"/>
      </defs>
      <use xlink:href="#DejaVuSans-4d"/>
      <use xlink:href="#DejaVuSans-6f" x="86.279297"/>
      <use xlink:href="#DejaVuSans-64" x="147.460938"/>
      <use xlink:href="#DejaVuSans-65" x="210.9375"/>
      <use xlink:href="#DejaVuSans-6c" x="272.460938"/>
      <use xlink:href="#DejaVuSans-20" x="300.244141"/>
      <use xlink:href="#DejaVuSans-41" x="332.03125"/>
      <use xlink:href="#DejaVuSans-3a" x="398.689453"/>
      <use xlink:href="#DejaVuSans-20" x="432.380859"/>
      <use xlink:href="#DejaVuSans-41" x="464.167969"/>
      <use xlink:href="#DejaVuSans-64" x="530.826172"/>
      <use xlink:href="#DejaVuSans-61" x="594.302734"/>
      <use xlink:href="#DejaVuSans-6d" x="655.582031"/>
      <use xlink:href="#DejaVuSans-20" x="752.994141"/>
      <use xlink:href="#DejaVuSans-4f" x="784.78125"/>
      <use xlink:href="#DejaVuSans-6e" x="863.492188"/>
      <use xlink:href="#DejaVuSans-6c" x="926.871094"/>
      <use xlink:href="#DejaVuSans-79" x="954.654297"/>
     </g>
    </g>
    <g id="line2d_31">
     <path d="M 399.939911 64.772812 
L 409.939911 64.772812 
L 419.939911 64.772812 
" style="fill: none; stroke-dasharray: 9.6,2.4,1.5,2.4; stroke-dashoffset: 0; stroke: #ff7f0e; stroke-width: 1.5"/>
    </g>
    <g id="text_18">
     <!-- Model B: Adam + L-BFGS -->
     <g transform="translate(427.939911 68.272812) scale(0.1 -0.1)">
      <defs>
       <path id="DejaVuSans-42" d="M 1259 2228 
L 1259 519 
L 2272 519 
Q 2781 519 3026 730 
Q 3272 941 3272 1375 
Q 3272 1813 3026 2020 
Q 2781 2228 2272 2228 
L 1259 2228 
z
M 1259 4147 
L 1259 2741 
L 2194 2741 
Q 2656 2741 2882 2914 
Q 3109 3088 3109 3444 
Q 3109 3797 2882 3972 
Q 2656 4147 2194 4147 
L 1259 4147 
z
M 628 4666 
L 2241 4666 
Q 2963 4666 3353 4366 
Q 3744 4066 3744 3513 
Q 3744 3084 3544 2831 
Q 3344 2578 2956 2516 
Q 3422 2416 3680 2098 
Q 3938 1781 3938 1306 
Q 3938 681 3513 340 
Q 3088 0 2303 0 
L 628 0 
L 628 4666 
z
" transform="scale(0.015625)"/>
       <path id="DejaVuSans-2b" d="M 2944 4013 
L 2944 2272 
L 4684 2272 
L 4684 1741 
L 2944 1741 
L 2944 0 
L 2419 0 
L 2419 1741 
L 678 1741 
L 678 2272 
L 2419 2272 
L 2419 4013 
L 2944 4013 
z
" transform="scale(0.015625)"/>
       <path id="DejaVuSans-4c" d="M 628 4666 
L 1259 4666 
L 1259 531 
L 3531 531 
L 3531 0 
L 628 0 
L 628 4666 
z
" transform="scale(0.015625)"/>
       <path id="DejaVuSans-2d" d="M 313 2009 
L 1997 2009 
L 1997 1497 
L 313 1497 
L 313 2009 
z
" transform="scale(0.015625)"/>
       <path id="DejaVuSans-46" d="M 628 4666 
L 3309 4666 
L 3309 4134 
L 1259 4134 
L 1259 2759 
L 3109 2759 
L 3109 2228 
L 1259 2228 
L 1259 0 
L 628 0 
L 628 4666 
z
" transform="scale(0.015625)"/>
       <path id="DejaVuSans-47" d="M 3809 666 
L 3809 1919 
L 2778 1919 
L 2778 2438 
L 4434 2438 
L 4434 434 
Q 4069 175 3628 42 
Q 3188 -91 2688 -91 
Q 1594 -91 976 548 
Q 359 1188 359 2328 
Q 359 3472 976 4111 
Q 1594 4750 2688 4750 
Q 3144 4750 3555 4637 
Q 3966 4525 4313 4306 
L 4313 3634 
Q 3963 3931 3569 4081 
Q 3175 4231 2741 4231 
Q 1884 4231 1454 3753 
Q 1025 3275 1025 2328 
Q 1025 1384 1454 906 
Q 1884 428 2741 428 
Q 3075 428 3337 486 
Q 3600 544 3809 666 
z
" transform="scale(0.015625)"/>
      </defs>
      <use xlink:href="#DejaVuSans-4d"/>
      <use xlink:href="#DejaVuSans-6f" x="86.279297"/>
      <use xlink:href="#DejaVuSans-64" x="147.460938"/>
      <use xlink:href="#DejaVuSans-65" x="210.9375"/>
      <use xlink:href="#DejaVuSans-6c" x="272.460938"/>
      <use xlink:href="#DejaVuSans-20" x="300.244141"/>
      <use xlink:href="#DejaVuSans-42" x="332.03125"/>
      <use xlink:href="#DejaVuSans-3a" x="400.634766"/>
      <use xlink:href="#DejaVuSans-20" x="434.326172"/>
      <use xlink:href="#DejaVuSans-41" x="466.113281"/>
      <use xlink:href="#DejaVuSans-64" x="532.771484"/>
      <use xlink:href="#DejaVuSans-61" x="596.248047"/>
      <use xlink:href="#DejaVuSans-6d" x="657.527344"/>
      <use xlink:href="#DejaVuSans-20" x="754.939453"/>
      <use xlink:href="#DejaVuSans-2b" x="786.726562"/>
      <use xlink:href="#DejaVuSans-20" x="870.515625"/>
      <use xlink:href="#DejaVuSans-4c" x="902.302734"/>
      <use xlink:href="#DejaVuSans-2d" x="956.265625"/>
      <use xlink:href="#DejaVuSans-42" x="988.724609"/>
      <use xlink:href="#DejaVuSans-46" x="1057.328125"/>
      <use xlink:href="#DejaVuSans-47" x="1114.847656"/>
      <use xlink:href="#DejaVuSans-53" x="1192.337891"/>
     </g>
    </g>
    <g id="line2d_32">
     <path d="M 399.939911 79.450938 
L 409.939911 79.450938 
L 419.939911 79.450938 
" style="fill: none; stroke-dasharray: 1.5,2.475; stroke-dashoffset: 0; stroke: #2ca02c; stroke-width: 1.5"/>
    </g>
    <g id="text_19">
     <!-- Model C: Adaptive -->
     <g transform="translate(427.939911 82.950938) scale(0.1 -0.1)">
      <defs>
       <path id="DejaVuSans-76" d="M 191 3500 
L 800 3500 
L 1894 563 
L 2988 3500 
L 3597 3500 
L 2284 0 
L 1503 0 
L 191 3500 
z
" transform="scale(0.015625)"/>
      </defs>
      <use xlink:href="#DejaVuSans-4d"/>
      <use xlink:href="#DejaVuSans-6f" x="86.279297"/>
      <use xlink:href="#DejaVuSans-64" x="147.460938"/>
      <use xlink:href="#DejaVuSans-65" x="210.9375"/>
      <use xlink:href="#DejaVuSans-6c" x="272.460938"/>
      <use xlink:href="#DejaVuSans-20" x="300.244141"/>
      <use xlink:href="#DejaVuSans-43" x="332.03125"/>
      <use xlink:href="#DejaVuSans-3a" x="401.855469"/>
      <use xlink:href="#DejaVuSans-20" x="435.546875"/>
      <use xlink:href="#DejaVuSans-41" x="467.333984"/>
      <use xlink:href="#DejaVuSans-64" x="533.992188"/>
      <use xlink:href="#DejaVuSans-61" x="597.46875"/>
      <use xlink:href="#DejaVuSans-70" x="658.748047"/>
      <use xlink:href="#DejaVuSans-74" x="722.224609"/>
      <use xlink:href="#DejaVuSans-69" x="761.433594"/>
      <use xlink:href="#DejaVuSans-76" x="789.216797"/>
      <use xlink:href="#DejaVuSans-65" x="848.396484"/>
     </g>
    </g>
   </g>
  </g>
  <g id="axes_2">
   <g id="patch_8">
    <path d="M 618.519777 385.478125 
L 1137.26125 385.478125 
L 1137.26125 22.318125 
L 618.519777 22.318125 
z
" style="fill: #ffffff"/>
   </g>
   <g id="matplotlib.axis_3">
    <g id="xtick_7">
     <g id="line2d_33">
      <path d="M 642.098935 385.478125 
L 642.098935 22.318125 
" clip-path="url(#pe46901d720)" style="fill: none; stroke: #b0b0b0; stroke-width: 0.8; stroke-linecap: square"/>
     </g>
     <g id="line2d_34">
      <g>
       <use xlink:href="#m028df03a2d" x="642.098935" y="385.478125" style="stroke: #000000; stroke-width: 0.8"/>
      </g>
     </g>
     <g id="text_20">
      <!-- 0.0 -->
      <g transform="translate(634.147372 400.076562) scale(0.1 -0.1)">
       <use xlink:href="#DejaVuSans-30"/>
       <use xlink:href="#DejaVuSans-2e" x="63.623047"/>
       <use xlink:href="#DejaVuSans-30" x="95.410156"/>
      </g>
     </g>
    </g>
    <g id="xtick_8">
     <g id="line2d_35">
      <path d="M 736.415566 385.478125 
L 736.415566 22.318125 
" clip-path="url(#pe46901d720)" style="fill: none; stroke: #b0b0b0; stroke-width: 0.8; stroke-linecap: square"/>
     </g>
     <g id="line2d_36">
      <g>
       <use xlink:href="#m028df03a2d" x="736.415566" y="385.478125" style="stroke: #000000; stroke-width: 0.8"/>
      </g>
     </g>
     <g id="text_21">
      <!-- 0.2 -->
      <g transform="translate(728.464004 400.076562) scale(0.1 -0.1)">
       <use xlink:href="#DejaVuSans-30"/>
       <use xlink:href="#DejaVuSans-2e" x="63.623047"/>
       <use xlink:href="#DejaVuSans-32" x="95.410156"/>
      </g>
     </g>
    </g>
    <g id="xtick_9">
     <g id="line2d_37">
      <path d="M 830.732198 385.478125 
L 830.732198 22.318125 
" clip-path="url(#pe46901d720)" style="fill: none; stroke: #b0b0b0; stroke-width: 0.8; stroke-linecap: square"/>
     </g>
     <g id="line2d_38">
      <g>
       <use xlink:href="#m028df03a2d" x="830.732198" y="385.478125" style="stroke: #000000; stroke-width: 0.8"/>
      </g>
     </g>
     <g id="text_22">
      <!-- 0.4 -->
      <g transform="translate(822.780635 400.076562) scale(0.1 -0.1)">
       <use xlink:href="#DejaVuSans-30"/>
       <use xlink:href="#DejaVuSans-2e" x="63.623047"/>
       <use xlink:href="#DejaVuSans-34" x="95.410156"/>
      </g>
     </g>
    </g>
    <g id="xtick_10">
     <g id="line2d_39">
      <path d="M 925.048829 385.478125 
L 925.048829 22.318125 
" clip-path="url(#pe46901d720)" style="fill: none; stroke: #b0b0b0; stroke-width: 0.8; stroke-linecap: square"/>
     </g>
     <g id="line2d_40">
      <g>
       <use xlink:href="#m028df03a2d" x="925.048829" y="385.478125" style="stroke: #000000; stroke-width: 0.8"/>
      </g>
     </g>
     <g id="text_23">
      <!-- 0.6 -->
      <g transform="translate(917.097267 400.076562) scale(0.1 -0.1)">
       <use xlink:href="#DejaVuSans-30"/>
       <use xlink:href="#DejaVuSans-2e" x="63.623047"/>
       <use xlink:href="#DejaVuSans-36" x="95.410156"/>
      </g>
     </g>
    </g>
    <g id="xtick_11">
     <g id="line2d_41">
      <path d="M 1019.365461 385.478125 
L 1019.365461 22.318125 
" clip-path="url(#pe46901d720)" style="fill: none; stroke: #b0b0b0; stroke-width: 0.8; stroke-linecap: square"/>
     </g>
     <g id="line2d_42">
      <g>
       <use xlink:href="#m028df03a2d" x="1019.365461" y="385.478125" style="stroke: #000000; stroke-width: 0.8"/>
      </g>
     </g>
     <g id="text_24">
      <!-- 0.8 -->
      <g transform="translate(1011.413898 400.076562) scale(0.1 -0.1)">
       <use xlink:href="#DejaVuSans-30"/>
       <use xlink:href="#DejaVuSans-2e" x="63.623047"/>
       <use xlink:href="#DejaVuSans-38" x="95.410156"/>
      </g>
     </g>
    </g>
    <g id="xtick_12">
     <g id="line2d_43">
      <path d="M 1113.682092 385.478125 
L 1113.682092 22.318125 
" clip-path="url(#pe46901d720)" style="fill: none; stroke: #b0b0b0; stroke-width: 0.8; stroke-linecap: square"/>
     </g>
     <g id="line2d_44">
      <g>
       <use xlink:href="#m028df03a2d" x="1113.682092" y="385.478125" style="stroke: #000000; stroke-width: 0.8"/>
      </g>
     </g>
     <g id="text_25">
      <!-- 1.0 -->
      <g transform="translate(1105.73053 400.076562) scale(0.1 -0.1)">
       <use xlink:href="#DejaVuSans-31"/>
       <use xlink:href="#DejaVuSans-2e" x="63.623047"/>
       <use xlink:href="#DejaVuSans-30" x="95.410156"/>
      </g>
     </g>
    </g>
    <g id="text_26">
     <!-- x -->
     <g transform="translate(874.931138 413.754687) scale(0.1 -0.1)">
      <use xlink:href="#DejaVuSans-78"/>
     </g>
    </g>
   </g>
   <g id="matplotlib.axis_4">
    <g id="ytick_7">
     <g id="line2d_45">
      <path d="M 618.519777 346.795585 
L 1137.26125 346.795585 
" clip-path="url(#pe46901d720)" style="fill: none; stroke: #b0b0b0; stroke-width: 0.8; stroke-linecap: square"/>
     </g>
     <g id="line2d_46">
      <g>
       <use xlink:href="#ma5119034a7" x="618.519777" y="346.795585" style="stroke: #000000; stroke-width: 0.8"/>
      </g>
     </g>
     <g id="text_27">
      <!-- $\mathdefault{10^{-5}}$ -->
      <g transform="translate(588.019777 350.594804) scale(0.1 -0.1)">
       <defs>
        <path id="DejaVuSans-2212" d="M 678 2272 
L 4684 2272 
L 4684 1741 
L 678 1741 
L 678 2272 
z
" transform="scale(0.015625)"/>
       </defs>
       <use xlink:href="#DejaVuSans-31" transform="translate(0 0.684375)"/>
       <use xlink:href="#DejaVuSans-30" transform="translate(63.623047 0.684375)"/>
       <use xlink:href="#DejaVuSans-2212" transform="translate(128.203125 38.965625) scale(0.7)"/>
       <use xlink:href="#DejaVuSans-35" transform="translate(186.855469 38.965625) scale(0.7)"/>
      </g>
     </g>
    </g>
    <g id="ytick_8">
     <g id="line2d_47">
      <path d="M 618.519777 220.442136 
L 1137.26125 220.442136 
" clip-path="url(#pe46901d720)" style="fill: none; stroke: #b0b0b0; stroke-width: 0.8; stroke-linecap: square"/>
     </g>
     <g id="line2d_48">
      <g>
       <use xlink:href="#ma5119034a7" x="618.519777" y="220.442136" style="stroke: #000000; stroke-width: 0.8"/>
      </g>
     </g>
     <g id="text_28">
      <!-- $\mathdefault{10^{-4}}$ -->
      <g transform="translate(588.019777 224.241355) scale(0.1 -0.1)">
       <use xlink:href="#DejaVuSans-31" transform="translate(0 0.684375)"/>
       <use xlink:href="#DejaVuSans-30" transform="translate(63.623047 0.684375)"/>
       <use xlink:href="#DejaVuSans-2212" transform="translate(128.203125 38.965625) scale(0.7)"/>
       <use xlink:href="#DejaVuSans-34" transform="translate(186.855469 38.965625) scale(0.7)"/>
      </g>
     </g>
    </g>
    <g id="ytick_9">
     <g id="line2d_49">
      <path d="M 618.519777 94.088687 
L 1137.26125 94.088687 
" clip-path="url(#pe46901d720)" style="fill: none; stroke: #b0b0b0; stroke-width: 0.8; stroke-linecap: square"/>
     </g>
     <g id="line2d_50">
      <g>
       <use xlink:href="#ma5119034a7" x="618.519777" y="94.088687" style="stroke: #000000; stroke-width: 0.8"/>
      </g>
     </g>
     <g id="text_29">
      <!-- $\mathdefault{10^{-3}}$ -->
      <g transform="translate(588.019777 97.887905) scale(0.1 -0.1)">
       <defs>
        <path id="DejaVuSans-33" d="M 2597 2516 
Q 3050 2419 3304 2112 
Q 3559 1806 3559 1356 
Q 3559 666 3084 287 
Q 2609 -91 1734 -91 
Q 1441 -91 1130 -33 
Q 819 25 488 141 
L 488 750 
Q 750 597 1062 519 
Q 1375 441 1716 441 
Q 2309 441 2620 675 
Q 2931 909 2931 1356 
Q 2931 1769 2642 2001 
Q 2353 2234 1838 2234 
L 1294 2234 
L 1294 2753 
L 1863 2753 
Q 2328 2753 2575 2939 
Q 2822 3125 2822 3475 
Q 2822 3834 2567 4026 
Q 2313 4219 1838 4219 
Q 1578 4219 1281 4162 
Q 984 4106 628 3988 
L 628 4550 
Q 988 4650 1302 4700 
Q 1616 4750 1894 4750 
Q 2613 4750 3031 4423 
Q 3450 4097 3450 3541 
Q 3450 3153 3228 2886 
Q 3006 2619 2597 2516 
z
" transform="scale(0.015625)"/>
       </defs>
       <use xlink:href="#DejaVuSans-31" transform="translate(0 0.765625)"/>
       <use xlink:href="#DejaVuSans-30" transform="translate(63.623047 0.765625)"/>
       <use xlink:href="#DejaVuSans-2212" transform="translate(128.203125 39.046875) scale(0.7)"/>
       <use xlink:href="#DejaVuSans-33" transform="translate(186.855469 39.046875) scale(0.7)"/>
      </g>
     </g>
    </g>
    <g id="ytick_10">
     <g id="line2d_51">
      <defs>
       <path id="m8a4b31e2b9" d="M 0 0 
L -2 0 
" style="stroke: #000000; stroke-width: 0.6"/>
      </defs>
      <g>
       <use xlink:href="#m8a4b31e2b9" x="618.519777" y="384.831764" style="stroke: #000000; stroke-width: 0.6"/>
      </g>
     </g>
    </g>
    <g id="ytick_11">
     <g id="line2d_52">
      <g>
       <use xlink:href="#m8a4b31e2b9" x="618.519777" y="374.82694" style="stroke: #000000; stroke-width: 0.6"/>
      </g>
     </g>
    </g>
    <g id="ytick_12">
     <g id="line2d_53">
      <g>
       <use xlink:href="#m8a4b31e2b9" x="618.519777" y="366.367982" style="stroke: #000000; stroke-width: 0.6"/>
      </g>
     </g>
    </g>
    <g id="ytick_13">
     <g id="line2d_54">
      <g>
       <use xlink:href="#m8a4b31e2b9" x="618.519777" y="359.0405" style="stroke: #000000; stroke-width: 0.6"/>
      </g>
     </g>
    </g>
    <g id="ytick_14">
     <g id="line2d_55">
      <g>
       <use xlink:href="#m8a4b31e2b9" x="618.519777" y="352.577202" style="stroke: #000000; stroke-width: 0.6"/>
      </g>
     </g>
    </g>
    <g id="ytick_15">
     <g id="line2d_56">
      <g>
       <use xlink:href="#m8a4b31e2b9" x="618.519777" y="308.759407" style="stroke: #000000; stroke-width: 0.6"/>
      </g>
     </g>
    </g>
    <g id="ytick_16">
     <g id="line2d_57">
      <g>
       <use xlink:href="#m8a4b31e2b9" x="618.519777" y="286.509669" style="stroke: #000000; stroke-width: 0.6"/>
      </g>
     </g>
    </g>
    <g id="ytick_17">
     <g id="line2d_58">
      <g>
       <use xlink:href="#m8a4b31e2b9" x="618.519777" y="270.723229" style="stroke: #000000; stroke-width: 0.6"/>
      </g>
     </g>
    </g>
    <g id="ytick_18">
     <g id="line2d_59">
      <g>
       <use xlink:href="#m8a4b31e2b9" x="618.519777" y="258.478314" style="stroke: #000000; stroke-width: 0.6"/>
      </g>
     </g>
    </g>
    <g id="ytick_19">
     <g id="line2d_60">
      <g>
       <use xlink:href="#m8a4b31e2b9" x="618.519777" y="248.473491" style="stroke: #000000; stroke-width: 0.6"/>
      </g>
     </g>
    </g>
    <g id="ytick_20">
     <g id="line2d_61">
      <g>
       <use xlink:href="#m8a4b31e2b9" x="618.519777" y="240.014533" style="stroke: #000000; stroke-width: 0.6"/>
      </g>
     </g>
    </g>
    <g id="ytick_21">
     <g id="line2d_62">
      <g>
       <use xlink:href="#m8a4b31e2b9" x="618.519777" y="232.68705" style="stroke: #000000; stroke-width: 0.6"/>
      </g>
     </g>
    </g>
    <g id="ytick_22">
     <g id="line2d_63">
      <g>
       <use xlink:href="#m8a4b31e2b9" x="618.519777" y="226.223753" style="stroke: #000000; stroke-width: 0.6"/>
      </g>
     </g>
    </g>
    <g id="ytick_23">
     <g id="line2d_64">
      <g>
       <use xlink:href="#m8a4b31e2b9" x="618.519777" y="182.405958" style="stroke: #000000; stroke-width: 0.6"/>
      </g>
     </g>
    </g>
    <g id="ytick_24">
     <g id="line2d_65">
      <g>
       <use xlink:href="#m8a4b31e2b9" x="618.519777" y="160.15622" style="stroke: #000000; stroke-width: 0.6"/>
      </g>
     </g>
    </g>
    <g id="ytick_25">
     <g id="line2d_66">
      <g>
       <use xlink:href="#m8a4b31e2b9" x="618.519777" y="144.369779" style="stroke: #000000; stroke-width: 0.6"/>
      </g>
     </g>
    </g>
    <g id="ytick_26">
     <g id="line2d_67">
      <g>
       <use xlink:href="#m8a4b31e2b9" x="618.519777" y="132.124865" style="stroke: #000000; stroke-width: 0.6"/>
      </g>
     </g>
    </g>
    <g id="ytick_27">
     <g id="line2d_68">
      <g>
       <use xlink:href="#m8a4b31e2b9" x="618.519777" y="122.120041" style="stroke: #000000; stroke-width: 0.6"/>
      </g>
     </g>
    </g>
    <g id="ytick_28">
     <g id="line2d_69">
      <g>
       <use xlink:href="#m8a4b31e2b9" x="618.519777" y="113.661084" style="stroke: #000000; stroke-width: 0.6"/>
      </g>
     </g>
    </g>
    <g id="ytick_29">
     <g id="line2d_70">
      <g>
       <use xlink:href="#m8a4b31e2b9" x="618.519777" y="106.333601" style="stroke: #000000; stroke-width: 0.6"/>
      </g>
     </g>
    </g>
    <g id="ytick_30">
     <g id="line2d_71">
      <g>
       <use xlink:href="#m8a4b31e2b9" x="618.519777" y="99.870303" style="stroke: #000000; stroke-width: 0.6"/>
      </g>
     </g>
    </g>
    <g id="ytick_31">
     <g id="line2d_72">
      <g>
       <use xlink:href="#m8a4b31e2b9" x="618.519777" y="56.052508" style="stroke: #000000; stroke-width: 0.6"/>
      </g>
     </g>
    </g>
    <g id="ytick_32">
     <g id="line2d_73">
      <g>
       <use xlink:href="#m8a4b31e2b9" x="618.519777" y="33.80277" style="stroke: #000000; stroke-width: 0.6"/>
      </g>
     </g>
    </g>
    <g id="text_30">
     <!-- Absolute Error -->
     <g transform="translate(581.940089 239.525469) rotate(-90) scale(0.1 -0.1)">
      <defs>
       <path id="DejaVuSans-62" d="M 3116 1747 
Q 3116 2381 2855 2742 
Q 2594 3103 2138 3103 
Q 1681 3103 1420 2742 
Q 1159 2381 1159 1747 
Q 1159 1113 1420 752 
Q 1681 391 2138 391 
Q 2594 391 2855 752 
Q 3116 1113 3116 1747 
z
M 1159 2969 
Q 1341 3281 1617 3432 
Q 1894 3584 2278 3584 
Q 2916 3584 3314 3078 
Q 3713 2572 3713 1747 
Q 3713 922 3314 415 
Q 2916 -91 2278 -91 
Q 1894 -91 1617 61 
Q 1341 213 1159 525 
L 1159 0 
L 581 0 
L 581 4863 
L 1159 4863 
L 1159 2969 
z
" transform="scale(0.015625)"/>
       <path id="DejaVuSans-45" d="M 628 4666 
L 3578 4666 
L 3578 4134 
L 1259 4134 
L 1259 2753 
L 3481 2753 
L 3481 2222 
L 1259 2222 
L 1259 531 
L 3634 531 
L 3634 0 
L 628 0 
L 628 4666 
z
" transform="scale(0.015625)"/>
      </defs>
      <use xlink:href="#DejaVuSans-41"/>
      <use xlink:href="#DejaVuSans-62" x="68.408203"/>
      <use xlink:href="#DejaVuSans-73" x="131.884766"/>
      <use xlink:href="#DejaVuSans-6f" x="183.984375"/>
      <use xlink:href="#DejaVuSans-6c" x="245.166016"/>
      <use xlink:href="#DejaVuSans-75" x="272.949219"/>
      <use xlink:href="#DejaVuSans-74" x="336.328125"/>
      <use xlink:href="#DejaVuSans-65" x="375.537109"/>
      <use xlink:href="#DejaVuSans-20" x="437.060547"/>
      <use xlink:href="#DejaVuSans-45" x="468.847656"/>
      <use xlink:href="#DejaVuSans-72" x="532.03125"/>
      <use xlink:href="#DejaVuSans-72" x="571.394531"/>
      <use xlink:href="#DejaVuSans-6f" x="610.257812"/>
      <use xlink:href="#DejaVuSans-72" x="671.439453"/>
     </g>
    </g>
   </g>
   <g id="line2d_74">
    <path d="M 642.098935 146.733218 
L 646.862401 138.840173 
L 651.625867 127.916101 
L 656.389334 116.976541 
L 661.1528 107.277516 
L 665.916266 99.13387 
L 670.679732 92.51521 
L 675.443198 87.266396 
L 680.206665 83.214246 
L 684.970131 80.224706 
L 689.733597 78.155555 
L 694.497063 76.894292 
L 699.26053 76.357765 
L 704.023996 76.467973 
L 708.787462 77.198786 
L 713.550928 78.489297 
L 718.314395 80.332786 
L 723.077861 82.712848 
L 727.841327 85.619689 
L 732.604793 89.093798 
L 737.36826 93.142529 
L 742.131726 97.810672 
L 746.895192 103.151854 
L 751.658658 109.215841 
L 756.422124 116.107393 
L 761.185591 123.905905 
L 765.949057 132.687752 
L 770.712523 142.606726 
L 775.475989 153.715317 
L 780.239456 166.02086 
L 785.002922 179.43682 
L 789.766388 193.205473 
L 794.529854 206.247611 
L 799.293321 215.375625 
L 804.056787 217.87729 
L 808.820253 212.245707 
L 813.583719 200.317204 
L 818.347186 185.404663 
L 823.110652 169.760906 
L 827.874118 154.861539 
L 832.637584 141.091663 
L 837.40105 128.625355 
L 842.164517 117.47766 
L 846.927983 107.468662 
L 851.691449 98.532972 
L 856.454915 90.626014 
L 861.218382 83.591804 
L 865.981848 77.444569 
L 870.745314 72.065807 
L 875.50878 67.452627 
L 880.272247 63.554325 
L 885.035713 60.30914 
L 889.799179 57.747215 
L 894.562645 55.834506 
L 899.326112 54.552978 
L 904.089578 53.920119 
L 908.853044 53.934278 
L 913.61651 54.638976 
L 918.379976 56.049944 
L 923.143443 58.202819 
L 927.906909 61.162273 
L 932.670375 65.028935 
L 937.433841 69.897756 
L 942.197308 75.948502 
L 946.960774 83.416499 
L 951.72424 92.700661 
L 956.487706 104.38478 
L 961.251173 119.555196 
L 966.014639 140.654351 
L 970.778105 174.16729 
L 975.541571 264.112923 
L 980.305038 206.729526 
L 985.068504 162.793397 
L 989.83197 141.439387 
L 994.595436 128.490498 
L 999.358902 120.467958 
L 1004.122369 115.81018 
L 1008.885835 114.088182 
L 1013.649301 115.047752 
L 1018.412767 118.903581 
L 1023.176234 126.500523 
L 1027.9397 139.452587 
L 1032.703166 162.474026 
L 1037.466632 217.597079 
L 1042.230099 217.690324 
L 1046.993565 153.079139 
L 1051.757031 122.343069 
L 1056.520497 101.763272 
L 1061.283964 86.346254 
L 1066.04743 74.274022 
L 1070.810896 64.516125 
L 1075.574362 56.643078 
L 1080.337828 50.32015 
L 1085.101295 45.414326 
L 1089.864761 41.828004 
L 1094.628227 39.617842 
L 1099.391693 38.825398 
L 1104.15516 39.695853 
L 1108.918626 42.587451 
L 1113.682092 48.203787 
" clip-path="url(#pe46901d720)" style="fill: none; stroke-dasharray: 5.55,2.4; stroke-dashoffset: 0; stroke: #1f77b4; stroke-width: 1.5"/>
   </g>
   <g id="line2d_75">
    <path d="M 642.098935 178.916422 
L 646.862401 170.749546 
L 651.625867 169.842955 
L 656.389334 174.791847 
L 661.1528 186.667007 
L 665.916266 209.861576 
L 670.679732 267.979194 
L 675.443198 258.961951 
L 680.206665 198.281488 
L 684.970131 168.974299 
L 689.733597 149.607136 
L 694.497063 135.400628 
L 699.26053 124.415107 
L 704.023996 115.793175 
L 708.787462 108.949334 
L 713.550928 103.519608 
L 718.314395 99.320647 
L 723.077861 96.210093 
L 727.841327 94.095935 
L 732.604793 92.911545 
L 737.36826 92.636916 
L 742.131726 93.274497 
L 746.895192 94.840255 
L 751.658658 97.413079 
L 756.422124 101.062438 
L 761.185591 105.917231 
L 765.949057 112.254382 
L 770.712523 120.425657 
L 775.475989 131.002174 
L 780.239456 145.060038 
L 785.002922 164.868343 
L 789.766388 197.103899 
L 794.529854 283.674965 
L 799.293321 228.032147 
L 804.056787 182.380504 
L 808.820253 159.196133 
L 813.583719 144.540833 
L 818.347186 134.242871 
L 823.110652 127.064319 
L 827.874118 122.116387 
L 832.637584 119.063183 
L 837.40105 117.658284 
L 842.164517 117.743786 
L 846.927983 119.430481 
L 851.691449 122.702759 
L 856.454915 127.930113 
L 861.218382 135.272315 
L 865.981848 145.567485 
L 870.745314 160.256231 
L 875.50878 182.478669 
L 880.272247 223.909191 
L 885.035713 328.538022 
L 889.799179 209.605938 
L 894.562645 175.549739 
L 899.326112 155.729653 
L 904.089578 142.448586 
L 908.853044 132.952751 
L 913.61651 126.200227 
L 918.379976 121.627982 
L 923.143443 118.821388 
L 927.906909 117.668336 
L 932.670375 118.158088 
L 937.433841 120.230439 
L 942.197308 124.159915 
L 946.960774 130.112158 
L 951.72424 138.724776 
L 956.487706 151.130389 
L 961.251173 169.812883 
L 966.014639 201.857241 
L 970.778105 300.7888 
L 975.541571 221.556331 
L 980.305038 177.428989 
L 985.068504 153.860938 
L 989.83197 138.240002 
L 994.595436 127.070284 
L 999.358902 118.877883 
L 1004.122369 113.011032 
L 1008.885835 108.983649 
L 1013.649301 106.701868 
L 1018.412767 106.010635 
L 1023.176234 106.928717 
L 1027.9397 109.626727 
L 1032.703166 114.390392 
L 1037.466632 121.749677 
L 1042.230099 132.803532 
L 1046.993565 149.530725 
L 1051.757031 178.362919 
L 1056.520497 255.4782 
L 1061.283964 210.145516 
L 1066.04743 160.425791 
L 1070.810896 134.837594 
L 1075.574362 118.142876 
L 1080.337828 106.348006 
L 1085.101295 98.032516 
L 1089.864761 92.524746 
L 1094.628227 89.653571 
L 1099.391693 89.534536 
L 1104.15516 92.818984 
L 1108.918626 100.799489 
L 1113.682092 117.255864 
" clip-path="url(#pe46901d720)" style="fill: none; stroke-dasharray: 9.6,2.4,1.5,2.4; stroke-dashoffset: 0; stroke: #ff7f0e; stroke-width: 1.5"/>
   </g>
   <g id="line2d_76">
    <path d="M 642.098935 84.948136 
L 646.862401 90.254369 
L 651.625867 93.337979 
L 656.389334 94.507192 
L 661.1528 94.265072 
L 665.916266 93.178708 
L 670.679732 91.720061 
L 675.443198 90.288502 
L 680.206665 89.175232 
L 684.970131 88.570725 
L 689.733597 88.621032 
L 694.497063 89.436788 
L 699.26053 91.142793 
L 704.023996 93.828349 
L 708.787462 97.630701 
L 713.550928 102.74249 
L 718.314395 109.442529 
L 723.077861 118.061812 
L 727.841327 129.366832 
L 732.604793 144.762748 
L 737.36826 167.2105 
L 742.131726 206.704057 
L 746.895192 368.970852 
L 751.658658 202.797703 
L 756.422124 167.359481 
L 761.185591 147.282191 
L 765.949057 133.876949 
L 770.712523 124.358295 
L 775.475989 117.492689 
L 780.239456 112.702527 
L 785.002922 109.539969 
L 789.766388 107.870829 
L 794.529854 107.539665 
L 799.293321 108.590312 
L 804.056787 111.051664 
L 808.820253 115.014218 
L 813.583719 120.796899 
L 818.347186 128.766698 
L 823.110652 139.857789 
L 827.874118 155.538889 
L 832.637584 179.919203 
L 837.40105 229.170665 
L 842.164517 267.785085 
L 846.927983 191.230438 
L 851.691449 160.76098 
L 856.454915 141.883025 
L 861.218382 128.674477 
L 865.981848 118.872744 
L 870.745314 111.548473 
L 875.50878 106.100126 
L 880.272247 102.210861 
L 885.035713 99.701552 
L 889.799179 98.490428 
L 894.562645 98.536519 
L 899.326112 99.868466 
L 904.089578 102.583796 
L 908.853044 106.908055 
L 913.61651 113.112712 
L 918.379976 121.866215 
L 923.143443 134.161344 
L 927.906909 152.459726 
L 932.670375 183.637103 
L 937.433841 275.423473 
L 942.197308 206.197128 
L 946.960774 160.23439 
L 951.72424 135.571019 
L 956.487706 118.8933 
L 961.251173 106.6155 
L 966.014639 97.215358 
L 970.778105 89.884845 
L 975.541571 84.227582 
L 980.305038 79.987677 
L 985.068504 76.980434 
L 989.83197 75.148285 
L 994.595436 74.469263 
L 999.358902 74.958695 
L 1004.122369 76.679528 
L 1008.885835 79.831066 
L 1013.649301 84.644547 
L 1018.412767 91.570683 
L 1023.176234 101.386512 
L 1027.9397 115.635528 
L 1032.703166 138.101236 
L 1037.466632 182.790691 
L 1042.230099 238.877194 
L 1046.993565 151.04721 
L 1051.757031 118.071939 
L 1056.520497 97.479145 
L 1061.283964 82.764712 
L 1066.04743 71.641583 
L 1070.810896 63.069916 
L 1075.574362 56.506867 
L 1080.337828 51.667571 
L 1085.101295 48.455483 
L 1089.864761 46.893768 
L 1094.628227 47.090128 
L 1099.391693 49.420279 
L 1104.15516 54.522851 
L 1108.918626 63.700239 
L 1113.682092 80.055109 
" clip-path="url(#pe46901d720)" style="fill: none; stroke-dasharray: 1.5,2.475; stroke-dashoffset: 0; stroke: #2ca02c; stroke-width: 1.5"/>
   </g>
   <g id="patch_9">
    <path d="M 618.519777 385.478125 
L 618.519777 22.318125 
" style="fill: none; stroke: #000000; stroke-width: 0.8; stroke-linejoin: miter; stroke-linecap: square"/>
   </g>
   <g id="patch_10">
    <path d="M 1137.26125 385.478125 
L 1137.26125 22.318125 
" style="fill: none; stroke: #000000; stroke-width: 0.8; stroke-linejoin: miter; stroke-linecap: square"/>
   </g>
   <g id="patch_11">
    <path d="M 618.519777 385.478125 
L 1137.26125 385.478125 
" style="fill: none; stroke: #000000; stroke-width: 0.8; stroke-linejoin: miter; stroke-linecap: square"/>
   </g>
   <g id="patch_12">
    <path d="M 618.519777 22.318125 
L 1137.26125 22.318125 
" style="fill: none; stroke: #000000; stroke-width: 0.8; stroke-linejoin: miter; stroke-linecap: square"/>
   </g>
   <g id="text_31">
    <!-- Absolute Error Comparison at t = 0.25 -->
    <g transform="translate(762.910826 16.318125) scale(0.12 -0.12)">
     <use xlink:href="#DejaVuSans-41"/>
     <use xlink:href="#DejaVuSans-62" x="68.408203"/>
     <use xlink:href="#DejaVuSans-73" x="131.884766"/>
     <use xlink:href="#DejaVuSans-6f" x="183.984375"/>
     <use xlink:href="#DejaVuSans-6c" x="245.166016"/>
     <use xlink:href="#DejaVuSans-75" x="272.949219"/>
     <use xlink:href="#DejaVuSans-74" x="336.328125"/>
     <use xlink:href="#DejaVuSans-65" x="375.537109"/>
     <use xlink:href="#DejaVuSans-20" x="437.060547"/>
     <use xlink:href="#DejaVuSans-45" x="468.847656"/>
     <use xlink:href="#DejaVuSans-72" x="532.03125"/>
     <use xlink:href="#DejaVuSans-72" x="571.394531"/>
     <use xlink:href="#DejaVuSans-6f" x="610.257812"/>
     <use xlink:href="#DejaVuSans-72" x="671.439453"/>
     <use xlink:href="#DejaVuSans-20" x="712.552734"/>
     <use xlink:href="#DejaVuSans-43" x="744.339844"/>
     <use xlink:href="#DejaVuSans-6f" x="814.164062"/>
     <use xlink:href="#DejaVuSans-6d" x="875.345703"/>
     <use xlink:href="#DejaVuSans-70" x="972.757812"/>
     <use xlink:href="#DejaVuSans-61" x="1036.234375"/>
     <use xlink:href="#DejaVuSans-72" x="1097.513672"/>
     <use xlink:href="#DejaVuSans-69" x="1138.626953"/>
     <use xlink:href="#DejaVuSans-73" x="1166.410156"/>
     <use xlink:href="#DejaVuSans-6f" x="1218.509766"/>
     <use xlink:href="#DejaVuSans-6e" x="1279.691406"/>
     <use xlink:href="#DejaVuSans-20" x="1343.070312"/>
     <use xlink:href="#DejaVuSans-61" x="1374.857422"/>
     <use xlink:href="#DejaVuSans-74" x="1436.136719"/>
     <use xlink:href="#DejaVuSans-20" x="1475.345703"/>
     <use xlink:href="#DejaVuSans-74" x="1507.132812"/>
     <use xlink:href="#DejaVuSans-20" x="1546.341797"/>
     <use xlink:href="#DejaVuSans-3d" x="1578.128906"/>
     <use xlink:href="#DejaVuSans-20" x="1661.917969"/>
     <use xlink:href="#DejaVuSans-30" x="1693.705078"/>
     <use xlink:href="#DejaVuSans-2e" x="1757.328125"/>
     <use xlink:href="#DejaVuSans-32" x="1789.115234"/>
     <use xlink:href="#DejaVuSans-35" x="1852.738281"/>
    </g>
   </g>
   <g id="legend_2">
    <g id="patch_13">
     <path d="M 625.519777 74.3525 
L 771.841652 74.3525 
Q 773.841652 74.3525 773.841652 72.3525 
L 773.841652 29.318125 
Q 773.841652 27.318125 771.841652 27.318125 
L 625.519777 27.318125 
Q 623.519777 27.318125 623.519777 29.318125 
L 623.519777 72.3525 
Q 623.519777 74.3525 625.519777 74.3525 
z
" style="fill: #ffffff; opacity: 0.8; stroke: #cccccc; stroke-linejoin: miter"/>
    </g>
    <g id="line2d_77">
     <path d="M 627.519777 35.416562 
L 637.519777 35.416562 
L 647.519777 35.416562 
" style="fill: none; stroke-dasharray: 5.55,2.4; stroke-dashoffset: 0; stroke: #1f77b4; stroke-width: 1.5"/>
    </g>
    <g id="text_32">
     <!-- Error (Adam) -->
     <g transform="translate(655.519777 38.916562) scale(0.1 -0.1)">
      <use xlink:href="#DejaVuSans-45"/>
      <use xlink:href="#DejaVuSans-72" x="63.183594"/>
      <use xlink:href="#DejaVuSans-72" x="102.546875"/>
      <use xlink:href="#DejaVuSans-6f" x="141.410156"/>
      <use xlink:href="#DejaVuSans-72" x="202.591797"/>
      <use xlink:href="#DejaVuSans-20" x="243.705078"/>
      <use xlink:href="#DejaVuSans-28" x="275.492188"/>
      <use xlink:href="#DejaVuSans-41" x="314.505859"/>
      <use xlink:href="#DejaVuSans-64" x="381.164062"/>
      <use xlink:href="#DejaVuSans-61" x="444.640625"/>
      <use xlink:href="#DejaVuSans-6d" x="505.919922"/>
      <use xlink:href="#DejaVuSans-29" x="603.332031"/>
     </g>
    </g>
    <g id="line2d_78">
     <path d="M 627.519777 50.094687 
L 637.519777 50.094687 
L 647.519777 50.094687 
" style="fill: none; stroke-dasharray: 9.6,2.4,1.5,2.4; stroke-dashoffset: 0; stroke: #ff7f0e; stroke-width: 1.5"/>
    </g>
    <g id="text_33">
     <!-- Error (Adam + L-BFGS) -->
     <g transform="translate(655.519777 53.594687) scale(0.1 -0.1)">
      <use xlink:href="#DejaVuSans-45"/>
      <use xlink:href="#DejaVuSans-72" x="63.183594"/>
      <use xlink:href="#DejaVuSans-72" x="102.546875"/>
      <use xlink:href="#DejaVuSans-6f" x="141.410156"/>
      <use xlink:href="#DejaVuSans-72" x="202.591797"/>
      <use xlink:href="#DejaVuSans-20" x="243.705078"/>
      <use xlink:href="#DejaVuSans-28" x="275.492188"/>
      <use xlink:href="#DejaVuSans-41" x="314.505859"/>
      <use xlink:href="#DejaVuSans-64" x="381.164062"/>
      <use xlink:href="#DejaVuSans-61" x="444.640625"/>
      <use xlink:href="#DejaVuSans-6d" x="505.919922"/>
      <use xlink:href="#DejaVuSans-20" x="603.332031"/>
      <use xlink:href="#DejaVuSans-2b" x="635.119141"/>
      <use xlink:href="#DejaVuSans-20" x="718.908203"/>
      <use xlink:href="#DejaVuSans-4c" x="750.695312"/>
      <use xlink:href="#DejaVuSans-2d" x="804.658203"/>
      <use xlink:href="#DejaVuSans-42" x="837.117188"/>
      <use xlink:href="#DejaVuSans-46" x="905.720703"/>
      <use xlink:href="#DejaVuSans-47" x="963.240234"/>
      <use xlink:href="#DejaVuSans-53" x="1040.730469"/>
      <use xlink:href="#DejaVuSans-29" x="1104.207031"/>
     </g>
    </g>
    <g id="line2d_79">
     <path d="M 627.519777 64.772812 
L 637.519777 64.772812 
L 647.519777 64.772812 
" style="fill: none; stroke-dasharray: 1.5,2.475; stroke-dashoffset: 0; stroke: #2ca02c; stroke-width: 1.5"/>
    </g>
    <g id="text_34">
     <!-- Error (Adaptive) -->
     <g transform="translate(655.519777 68.272812) scale(0.1 -0.1)">
      <use xlink:href="#DejaVuSans-45"/>
      <use xlink:href="#DejaVuSans-72" x="63.183594"/>
      <use xlink:href="#DejaVuSans-72" x="102.546875"/>
      <use xlink:href="#DejaVuSans-6f" x="141.410156"/>
      <use xlink:href="#DejaVuSans-72" x="202.591797"/>
      <use xlink:href="#DejaVuSans-20" x="243.705078"/>
      <use xlink:href="#DejaVuSans-28" x="275.492188"/>
      <use xlink:href="#DejaVuSans-41" x="314.505859"/>
      <use xlink:href="#DejaVuSans-64" x="381.164062"/>
      <use xlink:href="#DejaVuSans-61" x="444.640625"/>
      <use xlink:href="#DejaVuSans-70" x="505.919922"/>
      <use xlink:href="#DejaVuSans-74" x="569.396484"/>
      <use xlink:href="#DejaVuSans-69" x="608.605469"/>
      <use xlink:href="#DejaVuSans-76" x="636.388672"/>
      <use xlink:href="#DejaVuSans-65" x="695.568359"/>
      <use xlink:href="#DejaVuSans-29" x="757.091797"/>
     </g>
    </g>
   </g>
  </g>
 </g>
 <defs>
  <clipPath id="pfc38936713">
   <rect x="43.78125" y="22.318125" width="518.741473" height="363.16"/>
  </clipPath>
  <clipPath id="pe46901d720">
   <rect x="618.519777" y="22.318125" width="518.741473" height="363.16"/>
  </clipPath>
 </defs>
</svg>
