<?xml version="1.0" encoding="UTF-8"?>
<svg version="1.1" xmlns="http://www.w3.org/2000/svg" width="228" height="282">
<path d="M0 0 C2.99014433 1.17886594 5.18285715 2.87056568 7.5625 5 C9.66995197 6.87746278 11.63332529 8.42221686 14 10 C14 10.66 14 11.32 14 12 C14.515625 12.226875 15.03125 12.45375 15.5625 12.6875 C18.89547005 14.48217618 22.14703671 16.49965015 25 19 C25 19.66 25 20.32 25 21 C25.99 21 26.98 21 28 21 C29.6875 22.375 29.6875 22.375 31 24 C31 24.66 31 25.32 31 26 C32.65 26.66 34.3 27.32 36 28 C36 28.66 36 29.32 36 30 C36.55816406 30.25136719 37.11632812 30.50273438 37.69140625 30.76171875 C40.36689215 32.19679325 42.5737358 33.90764841 44.9375 35.8125 C45.77152344 36.47894531 46.60554688 37.14539063 47.46484375 37.83203125 C48.30144531 38.54746094 49.13804687 39.26289062 50 40 C50.92039062 40.70382813 51.84078125 41.40765625 52.7890625 42.1328125 C56.02619726 46.33079291 55.62685763 49.91271494 55.4375 55.0625 C55.42879883 56.40924805 55.42879883 56.40924805 55.41992188 57.78320312 C55.33932438 62.11934827 55.18322594 65.17103314 53 69 C51.66102417 68.04956626 50.32894573 67.08940853 49 66.125 C48.2575 65.59132813 47.515 65.05765625 46.75 64.5078125 C46.1725 64.01023437 45.595 63.51265625 45 63 C45 62.34 45 61.68 45 61 C44.443125 60.731875 43.88625 60.46375 43.3125 60.1875 C40.78774666 58.89100504 38.36285516 57.57523677 36 56 C36 55.34 36 54.68 36 54 C35.1646875 53.63068359 35.1646875 53.63068359 34.3125 53.25390625 C31.56508043 51.76417368 29.38913754 49.9533348 27 47.9375 C21.94718842 43.72795711 16.75329185 39.80537952 11.43359375 35.9453125 C9 34 9 34 7 31 C6.01 30.67 5.02 30.34 4 30 C4 29.34 4 28.68 4 28 C2.25328412 27.20643199 2.25328412 27.20643199 0 27 C-3.19353818 28.4739407 -5.1913358 30.1913358 -7.6875 32.6875 C-8.450625 33.450625 -9.21375 34.21375 -10 35 C-10.66 35 -11.32 35 -12 35 C-12.33 35.99 -12.66 36.98 -13 38 C-14.65071396 39.02611949 -16.31970006 40.02308143 -18 41 C-20.39795381 42.81287195 -20.39795381 42.81287195 -22 45 C-22.04156047 46.98040816 -22.04156047 46.98040816 -21 49 C-18.64365723 51.05970262 -18.64365723 51.05970262 -15.75 52.9375 C-11.75905614 55.71782336 -8.39714803 58.51345334 -5 62 C-3.70050652 63.0373397 -2.38599689 64.05596489 -1.0625 65.0625 C3.78531284 68.75529703 8.37435416 72.71630931 12.95092773 76.73657227 C15.6803538 79.11128548 18.36727665 81.29880736 21.42578125 83.23828125 C22.27527344 83.81964844 23.12476562 84.40101563 24 85 C24 85.66 24 86.32 24 87 C25.175625 87.37125 25.175625 87.37125 26.375 87.75 C29.46493987 89.22139994 29.53659227 90.07318455 31 93 C31.73605469 93.27328125 32.47210938 93.5465625 33.23046875 93.828125 C36.62701049 95.26530768 38.64989214 97.20684343 41.3125 99.75 C44.63749397 102.89928291 47.82031994 105.61970833 51.6875 108.0625 C53.95652717 109.70591063 54.84467252 110.48833302 55.6640625 113.1875 C55.93191948 117.47321166 55.4334039 119.44620613 52.75 122.875 C51.8425 123.57625 50.935 124.2775 50 125 C49.319375 125.61875 48.63875 126.2375 47.9375 126.875 C46 128 46 128 44.17578125 127.78515625 C41.43984633 126.79786196 39.53419026 125.35775411 37.25 123.5625 C36.45078125 122.94503906 35.6515625 122.32757813 34.828125 121.69140625 C34.22484375 121.13324219 33.6215625 120.57507813 33 120 C33 119.34 33 118.68 33 118 C31.35 117.34 29.7 116.68 28 116 C28 115.34 28 114.68 28 114 C27.29875 113.773125 26.5975 113.54625 25.875 113.3125 C22.25871465 111.66158712 19.91230024 109.7091165 17 107 C17 106.34 17 105.68 17 105 C15.88625 104.62875 15.88625 104.62875 14.75 104.25 C11.73792006 102.88087275 10.30454884 101.34317256 8 99 C6.58128976 97.85139541 5.14314109 96.72642647 3.6875 95.625 C0.89248011 93.48199943 -1.84524107 91.31440522 -4.5 89 C-9.78057109 84.41617093 -15.29922672 80.14611195 -21.0625 76.1875 C-22.031875 75.465625 -23.00125 74.74375 -24 74 C-24 73.34 -24 72.68 -24 72 C-24.86625 71.9071875 -24.86625 71.9071875 -25.75 71.8125 C-28.89219131 70.6778198 -29.91396425 68.60754468 -32 66 C-33.88379899 64.45981242 -35.8233345 63.03681428 -37.8046875 61.625 C-38.52914062 61.08875 -39.25359375 60.5525 -40 60 C-41.05316406 59.27941406 -42.10632812 58.55882812 -43.19140625 57.81640625 C-46.67338836 54.32473851 -46.98914271 51.64531195 -47.0625 46.9375 C-47.10826172 46.23044922 -47.15402344 45.52339844 -47.20117188 44.79492188 C-47.33198403 41.55503938 -47.20185595 39.3653993 -45.62109375 36.50390625 C-44 35 -44 35 -42 35 C-41.67 34.01 -41.34 33.02 -41 32 C-38.4375 30.8125 -38.4375 30.8125 -36 30 C-36 29.34 -36 28.68 -36 28 C-34.34928604 26.97388051 -32.68029994 25.97691857 -31 25 C-29.99435042 24.00568168 -28.99516917 23.00480761 -28 22 C-26.51764947 20.77007872 -25.01632251 19.56278596 -23.5 18.375 C-22.7265625 17.76398438 -21.953125 17.15296875 -21.15625 16.5234375 C-19 15 -19 15 -16 14 C-15.67 13.01 -15.34 12.02 -15 11 C-13.6846659 10.29848848 -12.34882408 9.63474075 -11 9 C-10.46375 8.46375 -9.9275 7.9275 -9.375 7.375 C-8.92125 6.92125 -8.4675 6.4675 -8 6 C-7.34 6 -6.68 6 -6 6 C-6 5.34 -6 4.68 -6 4 C-4.68 3.67 -3.36 3.34 -2 3 C-2 2.34 -2 1.68 -2 1 C-1.34 0.67 -0.68 0.34 0 0 Z " fill="#131315" transform="translate(84,55)"/>
<path d="M0 0 C2.73593492 0.98729429 4.64159099 2.42740214 6.92578125 4.22265625 C7.725 4.84011719 8.52421875 5.45757812 9.34765625 6.09375 C9.9509375 6.65191406 10.55421875 7.21007812 11.17578125 7.78515625 C11.17578125 8.44515625 11.17578125 9.10515625 11.17578125 9.78515625 C12.82578125 10.44515625 14.47578125 11.10515625 16.17578125 11.78515625 C16.17578125 12.44515625 16.17578125 13.10515625 16.17578125 13.78515625 C17.04976562 13.94177734 17.04976562 13.94177734 17.94140625 14.1015625 C20.51223548 14.88809242 21.90978705 15.96081516 23.92578125 17.72265625 C24.539375 18.24730469 25.15296875 18.77195312 25.78515625 19.3125 C27.17578125 20.78515625 27.17578125 20.78515625 27.17578125 22.78515625 C27.91828125 23.03265625 28.66078125 23.28015625 29.42578125 23.53515625 C32.43786119 24.9042835 33.87123241 26.44198369 36.17578125 28.78515625 C37.59449149 29.93376084 39.03264016 31.05872978 40.48828125 32.16015625 C43.28330114 34.30315682 46.02102232 36.47075103 48.67578125 38.78515625 C53.51709443 42.99062876 58.62022153 46.86945595 63.75 50.71484375 C64.98169922 51.64683594 64.98169922 51.64683594 66.23828125 52.59765625 C66.99238281 53.16097656 67.74648437 53.72429687 68.5234375 54.3046875 C69.06871094 54.79324219 69.61398438 55.28179687 70.17578125 55.78515625 C70.17578125 56.44515625 70.17578125 57.10515625 70.17578125 57.78515625 C70.73523438 58.03652344 71.2946875 58.28789062 71.87109375 58.546875 C74.53394333 59.97759248 76.70745703 61.68868652 79.05078125 63.59765625 C79.87320313 64.26410156 80.695625 64.93054688 81.54296875 65.6171875 C82.41179687 66.33261719 83.280625 67.04804688 84.17578125 67.78515625 C85.24957031 68.53023438 86.32335937 69.2753125 87.4296875 70.04296875 C90.87685964 73.48523737 91.16582231 76.19749737 91.23828125 80.84765625 C91.30692383 81.90823242 91.30692383 81.90823242 91.37695312 82.99023438 C91.50776528 86.23011687 91.3776372 88.41975695 89.796875 91.28125 C88.17578125 92.78515625 88.17578125 92.78515625 86.17578125 92.78515625 C85.84578125 93.44515625 85.51578125 94.10515625 85.17578125 94.78515625 C80.58754596 98.78515625 80.58754596 98.78515625 78.17578125 98.78515625 C78.17578125 99.44515625 78.17578125 100.10515625 78.17578125 100.78515625 C76.48828125 102.30078125 76.48828125 102.30078125 74.17578125 104.03515625 C73.35722656 104.65519531 72.53867188 105.27523437 71.6953125 105.9140625 C70.11095054 107.09066619 68.52521134 108.2654199 66.9375 109.4375 C66.25300781 109.94410156 65.56851563 110.45070313 64.86328125 110.97265625 C64.24839844 111.41996094 63.63351563 111.86726563 63 112.328125 C60.89648329 114.00823577 59.07755903 115.87986317 57.17578125 117.78515625 C55.36294328 119.37138948 53.52838875 120.93305799 51.67578125 122.47265625 C50.73734375 123.26027344 49.79890625 124.04789062 48.83203125 124.859375 C44.84130734 127.75264983 44.84130734 127.75264983 42.17578125 127.78515625 C40.03515625 126.421875 40.03515625 126.421875 37.92578125 124.47265625 C37.219375 123.83714844 36.51296875 123.20164062 35.78515625 122.546875 C34.17578125 120.78515625 34.17578125 120.78515625 34.17578125 118.78515625 C32.85578125 118.45515625 31.53578125 118.12515625 30.17578125 117.78515625 C30.17578125 117.12515625 30.17578125 116.46515625 30.17578125 115.78515625 C29.66015625 115.55828125 29.14453125 115.33140625 28.61328125 115.09765625 C25.2803112 113.30298007 22.02874454 111.2855061 19.17578125 108.78515625 C19.17578125 108.12515625 19.17578125 107.46515625 19.17578125 106.78515625 C18.18578125 106.78515625 17.19578125 106.78515625 16.17578125 106.78515625 C14.03787644 104.89876966 12.45434037 103.34227448 11.17578125 100.78515625 C9.69078125 100.29015625 9.69078125 100.29015625 8.17578125 99.78515625 C8.17578125 99.12515625 8.17578125 98.46515625 8.17578125 97.78515625 C7.33853516 97.41003906 7.33853516 97.41003906 6.484375 97.02734375 C3.79576791 95.58068207 1.6025889 93.84094678 -0.76171875 91.91015625 C-1.59574219 91.23210937 -2.42976563 90.5540625 -3.2890625 89.85546875 C-4.12566406 89.17226562 -4.96226563 88.4890625 -5.82421875 87.78515625 C-6.74460937 87.25664062 -7.665 86.728125 -8.61328125 86.18359375 C-12.14903747 82.34798541 -11.43528226 78.30148212 -11.26171875 73.28515625 C-11.25591797 72.33511719 -11.25011719 71.38507813 -11.24414062 70.40625 C-11.16573822 65.94672111 -11.08718823 62.71721419 -8.82421875 58.78515625 C-7.48524292 59.73558999 -6.15316448 60.69574772 -4.82421875 61.66015625 C-4.08171875 62.19382813 -3.33921875 62.7275 -2.57421875 63.27734375 C-1.99671875 63.77492187 -1.41921875 64.2725 -0.82421875 64.78515625 C-0.82421875 65.44515625 -0.82421875 66.10515625 -0.82421875 66.78515625 C-0.26734375 67.05328125 0.28953125 67.32140625 0.86328125 67.59765625 C3.38803459 68.89415121 5.81292609 70.20991948 8.17578125 71.78515625 C8.17578125 72.44515625 8.17578125 73.10515625 8.17578125 73.78515625 C8.72105469 74.01976562 9.26632813 74.254375 9.828125 74.49609375 C12.80898492 76.1328388 15.16016967 78.19249969 17.73828125 80.41015625 C22.59847337 84.55015285 27.62689622 88.32932207 32.83203125 92.03125 C34.77320604 93.4838958 36.4436939 94.91421582 38.11328125 96.66015625 C40.7447738 99.4086152 40.7447738 99.4086152 44.17578125 100.78515625 C47.69991216 98.93834801 50.56083894 96.7110633 53.48828125 94.03515625 C54.25914062 93.33648437 55.03 92.6378125 55.82421875 91.91796875 C56.60023438 91.21414062 57.37625 90.5103125 58.17578125 89.78515625 C60.29400246 87.9271943 62.41977742 86.07825049 64.546875 84.23046875 C65.79452185 83.12344397 66.9963478 81.9645897 68.17578125 80.78515625 C67.39074219 80.20507812 66.60570312 79.625 65.796875 79.02734375 C60.68869766 75.22911618 55.63607906 71.43142323 50.85546875 67.22265625 C48.99211915 65.62797566 47.06410639 64.14649921 45.11328125 62.66015625 C40.25162271 58.93009065 35.64318417 54.92381779 31.04858398 50.87255859 C28.22893316 48.41493016 25.68386332 46.21437487 22.17578125 44.78515625 C22.17578125 44.12515625 22.17578125 43.46515625 22.17578125 42.78515625 C21.51578125 42.78515625 20.85578125 42.78515625 20.17578125 42.78515625 C20.17578125 42.12515625 20.17578125 41.46515625 20.17578125 40.78515625 C19.39203125 40.53765625 18.60828125 40.29015625 17.80078125 40.03515625 C14.71084138 38.56375631 14.63918898 37.7119717 13.17578125 34.78515625 C11.51223335 34.11074494 9.84511183 33.44512415 8.17578125 32.78515625 C6.48915667 31.1386894 4.82066419 29.47332558 3.17578125 27.78515625 C2.18578125 27.45515625 1.19578125 27.12515625 0.17578125 26.78515625 C-1.51355797 25.14147485 -3.17681799 23.47086865 -4.82421875 21.78515625 C-5.37078125 21.41390625 -5.91734375 21.04265625 -6.48046875 20.66015625 C-8.93710255 18.99149933 -10.62132113 17.56816961 -11.37890625 14.64453125 C-11.62117544 10.34069031 -11.28169824 8.36971338 -8.57421875 4.91015625 C-7.66671875 4.20890625 -6.75921875 3.50765625 -5.82421875 2.78515625 C-4.80328125 1.85703125 -4.80328125 1.85703125 -3.76171875 0.91015625 C-1.82421875 -0.21484375 -1.82421875 -0.21484375 0 0 Z " fill="#161719" transform="translate(87.82421875,91.21484375)"/>
<path d="M0 0 C9.20327103 5.89953271 9.20327103 5.89953271 13 10 C13.66 10.33 14.32 10.66 15 11 C15 11.66 15 12.32 15 13 C15.66 13.185625 16.32 13.37125 17 13.5625 C21.32610051 15.63542316 24.47394426 18.79002495 28 22 C32.6362046 25.91501722 37.34314348 29.74373346 42.04296875 33.58203125 C44.04836751 35.22184873 46.05088388 36.86519633 48.05078125 38.51171875 C49.02402344 39.31222656 49.99726563 40.11273438 51 40.9375 C52.3303125 42.03384766 52.3303125 42.03384766 53.6875 43.15234375 C56.05900021 45.10145442 56.05900021 45.10145442 59 47 C59 47.66 59 48.32 59 49 C60.485 49.495 60.485 49.495 62 50 C62 57.92 62 65.84 62 74 C60.515 74.495 60.515 74.495 59 75 C57.93652344 73.90751953 57.93652344 73.90751953 56.8515625 72.79296875 C54.13051609 70.12783425 51.33151811 67.71110767 48.375 65.3125 C47.43398437 64.54550781 46.49296875 63.77851562 45.5234375 62.98828125 C42.9735008 60.92509827 42.9735008 60.92509827 40 59 C40 58.34 40 57.68 40 57 C39.443125 56.9175 38.88625 56.835 38.3125 56.75 C34.50125652 55.51392103 31.89960302 52.91650579 29.12890625 50.09375 C26.99638036 47.99644014 24.78848621 46.1599801 22.4375 44.3125 C21.57125 43.62542969 20.705 42.93835938 19.8125 42.23046875 C18.884375 41.49441406 17.95625 40.75835937 17 40 C14.97484326 38.38039123 12.95392418 36.75546799 10.9375 35.125 C10.01839844 34.38507813 9.09929687 33.64515625 8.15234375 32.8828125 C6 31 6 31 5 29 C4.34 29 3.68 29 3 29 C1.33333333 27.33333333 -0.33333333 25.66666667 -2 24 C-3.25565223 23.08300916 -4.52685648 22.1869458 -5.8125 21.3125 C-6.864375 20.549375 -7.91625 19.78625 -9 19 C-9 18.34 -9 17.68 -9 17 C-9.61875 16.690625 -10.2375 16.38125 -10.875 16.0625 C-12.25 15.375 -13.625 14.6875 -15 14 C-14.67 12.35 -14.34 10.7 -14 9 C-13.01 9.33 -12.02 9.66 -11 10 C-10.67 9.01 -10.34 8.02 -10 7 C-9.01 7 -8.02 7 -7 7 C-6.67 6.01 -6.34 5.02 -6 4 C-4.04402816 2.60287726 -2.04563599 1.26220093 0 0 Z " fill="#151617" transform="translate(119,50)"/>
<path d="M0 0 C5.10073558 1.30483934 7.40549734 3.23433055 11 7 C13.11030766 8.60541162 15.25420326 10.14665995 17.42578125 11.66796875 C17.94527344 12.10753906 18.46476562 12.54710937 19 13 C19 13.66 19 14.32 19 15 C19.66 15 20.32 15 21 15 C21 15.66 21 16.32 21 17 C22.10988281 17.38285156 22.10988281 17.38285156 23.2421875 17.7734375 C26.14523223 19.06459337 27.83779202 20.44215132 30.125 22.625 C34.45343824 26.62497328 39.0601107 29.99612561 43.91015625 33.3359375 C44.59980469 33.88507813 45.28945312 34.43421875 46 35 C46 35.66 46 36.32 46 37 C46.53625 37.2475 47.0725 37.495 47.625 37.75 C52.85459182 40.50241675 56.88953771 43.78414124 61 48 C64.31033382 50.79064747 64.31033382 50.79064747 68 53 C68 53.66 68 54.32 68 55 C68.66 55 69.32 55 70 55 C70 55.66 70 56.32 70 57 C70.61875 57.309375 71.2375 57.61875 71.875 57.9375 C73.25 58.625 74.625 59.3125 76 60 C76 60.66 76 61.32 76 62 C75.34 62 74.68 62 74 62 C74 62.66 74 63.32 74 64 C73.34 64 72.68 64 72 64 C72 64.66 72 65.32 72 66 C71.34 66 70.68 66 70 66 C69.67 66.66 69.34 67.32 69 68 C67.6763542 69.08018452 66.3172969 70.11752925 64.9375 71.125 C64.20402344 71.66382813 63.47054687 72.20265625 62.71484375 72.7578125 C62.14894531 73.16773438 61.58304688 73.57765625 61 74 C55.125 70.25 55.125 70.25 54 68 C53.34 68 52.68 68 52 68 C51.01 67.01 51.01 67.01 50 66 C49.01 65.505 49.01 65.505 48 65 C48 64.34 48 63.68 48 63 C46.68 62.67 45.36 62.34 44 62 C44 61.34 44 60.68 44 60 C43.4121875 59.72929687 42.824375 59.45859375 42.21875 59.1796875 C40.02448495 58.0130184 38.363285 56.75960911 36.5 55.125 C35.8915625 54.59390625 35.283125 54.0628125 34.65625 53.515625 C33.38742984 52.35453485 32.17875455 51.12742671 31 49.875 C29.13117451 48.12297611 27.54684304 47.13851603 25.3125 45.9375 C22 44 22 44 21 41 C19.67236406 40.32205824 18.33731454 39.6586441 17 39 C14.73571284 37.25653582 12.59236322 35.37611264 10.4375 33.5 C5.87578359 29.55102588 5.87578359 29.55102588 1 26 C-1.36667334 23.63332666 -0.48144076 17.88169302 -0.625 14.6875 C-0.6765625 13.72392578 -0.728125 12.76035156 -0.78125 11.76757812 C-0.82507812 10.83751953 -0.86890625 9.90746094 -0.9140625 8.94921875 C-0.9548291 8.09674561 -0.9955957 7.24427246 -1.03759766 6.3659668 C-1.00113413 4.07136922 -0.65491108 2.19094648 0 0 Z " fill="#18191A" transform="translate(36,150)"/>
<path d="M0 0 C0.66 0.33 1.32 0.66 2 1 C1.6875 3.375 1.6875 3.375 1 6 C-3 8.66666667 -7 11.33333333 -11 14 C-12.2375 14.8353125 -12.2375 14.8353125 -13.5 15.6875 C-14.325 16.120625 -15.15 16.55375 -16 17 C-16.99 16.67 -17.98 16.34 -19 16 C-16.29323556 13.20691506 -13.50389525 10.70439207 -10.4375 8.3125 C-9.67308594 7.71050781 -8.90867187 7.10851562 -8.12109375 6.48828125 C-6 5 -6 5 -3 4 C-2.67 3.01 -2.34 2.02 -2 1 C-1.34 0.67 -0.68 0.34 0 0 Z " fill="#353537" transform="translate(71,65)"/>
<path d="M0 0 C1.32 0 2.64 0 4 0 C4.33 0.99 4.66 1.98 5 3 C3.68 4.32 2.36 5.64 1 7 C1.66 8.32 2.32 9.64 3 11 C3.66 11 4.32 11 5 11 C5.33 10.34 5.66 9.68 6 9 C6.66 9 7.32 9 8 9 C7.7215625 10.175625 7.7215625 10.175625 7.4375 11.375 C6.74037734 13.97089775 6.74037734 13.97089775 8 16 C3.2687747 14.50592885 3.2687747 14.50592885 1.9375 12 C1.628125 11.34 1.31875 10.68 1 10 C-0.95021083 8.77472052 -0.95021083 8.77472052 -3 8 C-3.66 7.67 -4.32 7.34 -5 7 C-4.67 5.35 -4.34 3.7 -4 2 C-3.01 2.33 -2.02 2.66 -1 3 C-0.67 2.01 -0.34 1.02 0 0 Z " fill="#5D5D5E" transform="translate(109,57)"/>
<path d="M0 0 C0.66 0.33 1.32 0.66 2 1 C1.505 1.556875 1.01 2.11375 0.5 2.6875 C-1.24754367 5.38162983 -1.26218749 6.85375007 -1 10 C-1.99 10.33 -2.98 10.66 -4 11 C-4.99 10.34 -5.98 9.68 -7 9 C-7 14.28 -7 19.56 -7 25 C-7.33 25 -7.66 25 -8 25 C-8.24927162 22.41718562 -8.47499275 19.83587772 -8.6875 17.25 C-8.76033203 16.52039063 -8.83316406 15.79078125 -8.90820312 15.0390625 C-9.16632282 11.69869004 -9.25442573 9.4721907 -7.64453125 6.484375 C-6 5 -6 5 -4 5 C-3.67 4.01 -3.34 3.02 -3 2 C-2.01 1.34 -1.02 0.68 0 0 Z " fill="#6D6D6E" transform="translate(46,85)"/>
<path d="M0 0 C0.66 0 1.32 0 2 0 C2 0.66 2 1.32 2 2 C2.66 2.33 3.32 2.66 4 3 C1.96234853 6.0564772 0.37430193 7.56847797 -3 9 C-3.7425 9.37125 -4.485 9.7425 -5.25 10.125 C-5.8275 10.41375 -6.405 10.7025 -7 11 C-9 8 -9 8 -10 6 C-6.7 4.35 -3.4 2.7 0 1 C0 0.67 0 0.34 0 0 Z " fill="#050507" transform="translate(62,76)"/>
<path d="M0 0 C10.7804878 6.34146341 10.7804878 6.34146341 12 10 C11.01 10.33 10.02 10.66 9 11 C8.67 11.66 8.34 12.32 8 13 C6.68 12.34 5.36 11.68 4 11 C4 9.68 4 8.36 4 7 C3.67 6.34 3.34 5.68 3 5 C2.01 5.495 2.01 5.495 1 6 C1.33 4.68 1.66 3.36 2 2 C1.34 2 0.68 2 0 2 C0 1.34 0 0.68 0 0 Z " fill="#404142" transform="translate(63,105)"/>
<path d="M0 0 C3.125 0.375 3.125 0.375 6 1 C6 1.66 6 2.32 6 3 C6.99 2.67 7.98 2.34 9 2 C9 2.66 9 3.32 9 4 C10.32 3.67 11.64 3.34 13 3 C10.75 5.5625 10.75 5.5625 8 8 C4.84877069 8.20330512 3.08736688 6.34790057 0.75 4.4375 C-0.1575 3.633125 -1.065 2.82875 -2 2 C-1.34 1.34 -0.68 0.68 0 0 Z " fill="#474747" transform="translate(122,175)"/>
<path d="M0 0 C0.66 0.33 1.32 0.66 2 1 C1.67 1.66 1.34 2.32 1 3 C1.66 3.66 2.32 4.32 3 5 C1.02 5.99 1.02 5.99 -1 7 C-1 6.01 -1 5.02 -1 4 C-1.66 4 -2.32 4 -3 4 C-3.33 4.99 -3.66 5.98 -4 7 C-5.63604196 8.37073786 -7.30678061 9.70055256 -9 11 C-10.35147138 12.31494512 -11.69112542 13.64264858 -13 15 C-13.99 14.01 -14.98 13.02 -16 12 C-14.6696875 11.38125 -14.6696875 11.38125 -13.3125 10.75 C-8.03881418 7.96390183 -4.13888279 4.25713658 0 0 Z " fill="#57585A" transform="translate(146,181)"/>
<path d="M0 0 C0.66 0.33 1.32 0.66 2 1 C2 8.92 2 16.84 2 25 C1.01 25.33 0.02 25.66 -1 26 C-0.67 17.42 -0.34 8.84 0 0 Z " fill="#9EA4A4" transform="translate(179,99)"/>
<path d="M0 0 C3 1 3 1 4.66796875 2.96484375 C6.53230745 7.2129117 6.3998082 10.97707343 6.3125 15.5625 C6.31572266 16.41263672 6.31894531 17.26277344 6.32226562 18.13867188 C6.2856589 22.38172414 6.13317146 25.24585177 4 29 C2.72508784 26.45017567 2.97403384 24.83534576 3.12109375 21.9921875 C3.16943359 21.00605469 3.21777344 20.01992187 3.26757812 19.00390625 C3.32365234 17.97136719 3.37972656 16.93882813 3.4375 15.875 C3.48970703 14.83472656 3.54191406 13.79445313 3.59570312 12.72265625 C3.72560946 10.14814884 3.86058252 7.57400704 4 5 C2.68 4.67 1.36 4.34 0 4 C0 2.68 0 1.36 0 0 Z " fill="#79797A" transform="translate(133,95)"/>
<path d="M0 0 C-0.33 1.98 -0.66 3.96 -1 6 C-1.78375 6.061875 -2.5675 6.12375 -3.375 6.1875 C-4.24125 6.455625 -5.1075 6.72375 -6 7 C-7.37466625 9.47636012 -7.37466625 9.47636012 -8 12 C-8.99 11.01 -9.98 10.02 -11 9 C-10.34 9 -9.68 9 -9 9 C-8.6596875 8.1646875 -8.6596875 8.1646875 -8.3125 7.3125 C-6.49644015 4.11277551 -3.9498923 0 0 0 Z " fill="#040406" transform="translate(145,185)"/>
<path d="M0 0 C1.32 0.66 2.64 1.32 4 2 C2.36630142 5.26739717 -0.70894675 5.71704704 -4 7 C-5.32276056 7.37308631 -6.65232077 7.73046415 -8 8 C-5.74716687 4.68003538 -3.19199167 2.41556126 0 0 Z " fill="#595959" transform="translate(60,74)"/>
<path d="M0 0 C0.99 0.33 1.98 0.66 3 1 C2.67 1.66 2.34 2.32 2 3 C1.91573906 4.6674606 1.89274857 6.33825187 1.90234375 8.0078125 C1.90556641 8.99394531 1.90878906 9.98007813 1.91210938 10.99609375 C1.92048828 12.02863281 1.92886719 13.06117188 1.9375 14.125 C1.94201172 15.16527344 1.94652344 16.20554688 1.95117188 17.27734375 C1.96298048 19.85161962 1.97944925 22.42578146 2 25 C1.34 25 0.68 25 0 25 C-0.1972935 21.58382503 -0.38112295 18.16705407 -0.5625 14.75 C-0.61857422 13.78191406 -0.67464844 12.81382812 -0.73242188 11.81640625 C-0.78076172 10.88183594 -0.82910156 9.94726562 -0.87890625 8.984375 C-0.9260376 8.12553711 -0.97316895 7.26669922 -1.02172852 6.38183594 C-1.00066921 4.07335735 -0.66206871 2.20243733 0 0 Z " fill="#5D5D5D" transform="translate(36,150)"/>
<path d="M0 0 C4.6875 3.61328125 4.6875 3.61328125 6 5 C6 5.99 6 6.98 6 8 C6.33 8.66 6.66 9.32 7 10 C3.05860922 8.33248852 0.2107188 5.77289351 -3 3 C-2.01 3 -1.02 3 0 3 C0 2.01 0 1.02 0 0 Z " fill="#79797B" transform="translate(130,146)"/>
<path d="M0 0 C3.94139078 1.66751148 6.7892812 4.22710649 10 7 C7.50935112 7.68707555 5.62113708 8 3 8 C2.34 7.34 1.68 6.68 1 6 C1 4.68 1 3.36 1 2 C0.67 1.34 0.34 0.68 0 0 Z " fill="#68696A" transform="translate(89,126)"/>
<path d="M0 0 C0 1.32 0 2.64 0 4 C0.66 4.33 1.32 4.66 2 5 C1.67 5.66 1.34 6.32 1 7 C-0.875 6.8125 -0.875 6.8125 -3 6 C-4.25 3.4375 -4.25 3.4375 -5 1 C-2 0 -2 0 0 0 Z M-5 6 C-3 7 -3 7 -3 7 Z " fill="#030406" transform="translate(128,158)"/>
<path d="M0 0 C0.66 0.66 1.32 1.32 2 2 C0.68 3.65 -0.64 5.3 -2 7 C-3.32 6.34 -4.64 5.68 -6 5 C-5.67 4.01 -5.34 3.02 -5 2 C-2.4375 0.8125 -2.4375 0.8125 0 0 Z " fill="#262627" transform="translate(46,173)"/>
<path d="M0 0 C1.828125 0.76953125 1.828125 0.76953125 2.828125 2.76953125 C1.6834375 2.98609375 1.6834375 2.98609375 0.515625 3.20703125 C-2.25360408 3.73279065 -2.25360408 3.73279065 -5.171875 4.76953125 C-5.501875 5.42953125 -5.831875 6.08953125 -6.171875 6.76953125 C-7.161875 6.76953125 -8.151875 6.76953125 -9.171875 6.76953125 C-9.171875 6.10953125 -9.171875 5.44953125 -9.171875 4.76953125 C-7.78125 3.4453125 -7.78125 3.4453125 -5.921875 2.08203125 C-5.31859375 1.62441406 -4.7153125 1.16679688 -4.09375 0.6953125 C-2.171875 -0.23046875 -2.171875 -0.23046875 0 0 Z " fill="#919192" transform="translate(88.171875,91.23046875)"/>
<path d="M0 0 C0.598125 0.804375 1.19625 1.60875 1.8125 2.4375 C3.80947276 5.22327984 3.80947276 5.22327984 7 6 C6.34 7.32 5.68 8.64 5 10 C4.01 9.34 3.02 8.68 2 8 C2 7.34 2 6.68 2 6 C1.01 5.67 0.02 5.34 -1 5 C-1 2 -1 2 0 0 Z " fill="#474849" transform="translate(99,154)"/>
<path d="M0 0 C3.4375 0.8125 3.4375 0.8125 7 2 C7.33 2.99 7.66 3.98 8 5 C6.68 5.33 5.36 5.66 4 6 C4 5.34 4 4.68 4 4 C2.68 3.34 1.36 2.68 0 2 C0 1.34 0 0.68 0 0 Z " fill="#323335" transform="translate(121,54)"/>
<path d="M0 0 C0.99 0.33 1.98 0.66 3 1 C3 4 3 4 2 6 C0.68 5.67 -0.64 5.34 -2 5 C-2 3.68 -2 2.36 -2 1 C-1.34 0.67 -0.68 0.34 0 0 Z " fill="#070708" transform="translate(139,151)"/>
<path d="M0 0 C3.81684226 1.55500981 6.19195732 4.03595495 9 7 C8.236875 6.649375 7.47375 6.29875 6.6875 5.9375 C3.95240621 4.67639116 3.95240621 4.67639116 1 6 C0.67 4.02 0.34 2.04 0 0 Z " fill="#848586" transform="translate(140,134)"/>
<path d="M0 0 C0.99 0.33 1.98 0.66 3 1 C3 1.66 3 2.32 3 3 C3.639375 3.28875 4.27875 3.5775 4.9375 3.875 C7 5 7 5 8 7 C6.02 7 4.04 7 2 7 C1.34 4.69 0.68 2.38 0 0 Z " fill="#757576" transform="translate(79,184)"/>
<path d="M0 0 C1.32 0.66 2.64 1.32 4 2 C1.69 3.65 -0.62 5.3 -3 7 C-3.33 5.68 -3.66 4.36 -4 3 C-3.34 2.67 -2.68 2.34 -2 2 C-1.01 2.33 -0.02 2.66 1 3 C0.67 2.01 0.34 1.02 0 0 Z " fill="#4B4B4C" transform="translate(160,191)"/>
<path d="M0 0 C2.475 0.99 2.475 0.99 5 2 C4.01 2.495 4.01 2.495 3 3 C2.67 3.99 2.34 4.98 2 6 C1.01 5.01 0.02 4.02 -1 3 C-0.67 2.01 -0.34 1.02 0 0 Z M-3 3 C-2.01 3.495 -2.01 3.495 -1 4 C-1.99 4.495 -1.99 4.495 -3 5 C-3 4.34 -3 3.68 -3 3 Z " fill="#08090B" transform="translate(78,119)"/>
<path d="M0 0 C4 0 4 0 5.5625 1.375 C6.036875 1.91125 6.51125 2.4475 7 3 C7.99 3.66 8.98 4.32 10 5 C10 5.99 10 6.98 10 8 C8 8 8 8 5.5625 5.6875 C4.716875 4.800625 3.87125 3.91375 3 3 C2.401875 2.401875 1.80375 1.80375 1.1875 1.1875 C0.795625 0.795625 0.40375 0.40375 0 0 Z " fill="#7A7B7C" transform="translate(126,81)"/>
<path d="M0 0 C-0.66 1.98 -1.32 3.96 -2 6 C-3.32 5.34 -4.64 4.68 -6 4 C-2.25 0 -2.25 0 0 0 Z " fill="#030406" transform="translate(152,180)"/>
<path d="M0 0 C0.556875 0.28875 1.11375 0.5775 1.6875 0.875 C4.08494645 2.0413253 6.51596939 3.0339881 9 4 C9 4.99 9 5.98 9 7 C2.25 3.375 2.25 3.375 0 0 Z " fill="#777778" transform="translate(44,114)"/>
<path d="M0 0 C0.33 0.99 0.66 1.98 1 3 C1.99 3.33 2.98 3.66 4 4 C4.6875 6.0625 4.6875 6.0625 5 8 C4.01 8 3.02 8 2 8 C0.93224776 6.03533587 -0.06553465 4.03144641 -1 2 C-0.67 1.34 -0.34 0.68 0 0 Z " fill="#040507" transform="translate(163,104)"/>
<path d="M0 0 C0.66 0 1.32 0 2 0 C1.814375 0.78375 1.62875 1.5675 1.4375 2.375 C0.74037734 4.97089775 0.74037734 4.97089775 2 7 C-1.65316671 5.75023244 -2.78065836 5.32901247 -5 2 C-3.68 2 -2.36 2 -1 2 C-0.67 1.34 -0.34 0.68 0 0 Z " fill="#717273" transform="translate(115,66)"/>
<path d="M0 0 C2.475 0.99 2.475 0.99 5 2 C4.67 2.99 4.34 3.98 4 5 C1.9375 5.6875 1.9375 5.6875 0 6 C-1.125 2.25 -1.125 2.25 0 0 Z " fill="#07080A" transform="translate(130,95)"/>
<path d="M0 0 C1.4540625 0.0309375 1.4540625 0.0309375 2.9375 0.0625 C1.56058038 2.81633923 -0.42970042 3.57733101 -3.0625 5.0625 C-3.625 3.125 -3.625 3.125 -4.0625 1.0625 C-3.0625 0.0625 -3.0625 0.0625 0 0 Z " fill="#3D3D3E" transform="translate(80.0625,80.9375)"/>
<path d="M0 0 C1.32 0.66 2.64 1.32 4 2 C3.34 3.32 2.68 4.64 2 6 C1.01 5.67 0.02 5.34 -1 5 C-0.67 3.35 -0.34 1.7 0 0 Z " fill="#413441" transform="translate(130,59)"/>
<path d="M0 0 C1.32 0.66 2.64 1.32 4 2 C1.525 3.485 1.525 3.485 -1 5 C-1.66 4.01 -2.32 3.02 -3 2 C-2.01 1.34 -1.02 0.68 0 0 Z " fill="#69696A" transform="translate(97,219)"/>
<path d="M0 0 C3.32901247 2.21934164 3.75023244 3.34683329 5 7 C1.63279613 5.60667426 0.0140476 4.0210714 -2 1 C-1.34 0.67 -0.68 0.34 0 0 Z " fill="#626364" transform="translate(87,146)"/>
<path d="M0 0 C3.465 1.98 3.465 1.98 7 4 C6.67 4.66 6.34 5.32 6 6 C4.02 5.34 2.04 4.68 0 4 C0 2.68 0 1.36 0 0 Z " fill="#6F6F6F" transform="translate(101,136)"/>
<path d="M0 0 C0.66 0 1.32 0 2 0 C2 0.66 2 1.32 2 2 C4.475 2.99 4.475 2.99 7 4 C6.67 4.66 6.34 5.32 6 6 C3.625 5.75 3.625 5.75 1 5 C-0.3125 2.9375 -0.3125 2.9375 -1 1 C-0.67 0.67 -0.34 0.34 0 0 Z " fill="#747474" transform="translate(113,79)"/>
<path d="M0 0 C0.66 0.33 1.32 0.66 2 1 C1.625 3.4375 1.625 3.4375 1 6 C0.01 6.495 0.01 6.495 -1 7 C-1 6.01 -1 5.02 -1 4 C-1.66 4 -2.32 4 -3 4 C-2.67 3.01 -2.34 2.02 -2 1 C-1.34 0.67 -0.68 0.34 0 0 Z " fill="#666668" transform="translate(71,65)"/>
<path d="M0 0 C1.98 0.495 1.98 0.495 4 1 C3.67 2.65 3.34 4.3 3 6 C1.68 5.34 0.36 4.68 -1 4 C-0.67 2.68 -0.34 1.36 0 0 Z " fill="#050507" transform="translate(115,200)"/>
<path d="M0 0 C0 1.65 0 3.3 0 5 C-0.66 5 -1.32 5 -2 5 C-3.38232443 3.37373596 -4.71937515 1.7074998 -6 0 C-3 -1 -3 -1 0 0 Z " fill="#4B4B4C" transform="translate(98,153)"/>
<path d="M0 0 C0.99 0.33 1.98 0.66 3 1 C3.33 2.65 3.66 4.3 4 6 C2.35 5.01 0.7 4.02 -1 3 C-0.67 2.01 -0.34 1.02 0 0 Z " fill="#3A3A3A" transform="translate(107,62)"/>
<path d="" fill="#FFFFFF" transform="translate(0,0)"/>
<path d="" fill="#FFFFFF" transform="translate(0,0)"/>
<path d="" fill="#FFFFFF" transform="translate(0,0)"/>
<path d="" fill="#FFFFFF" transform="translate(0,0)"/>
<path d="" fill="#FFFFFF" transform="translate(0,0)"/>
<path d="" fill="#FFFFFF" transform="translate(0,0)"/>
<path d="" fill="#FFFFFF" transform="translate(0,0)"/>
<path d="" fill="#FFFFFF" transform="translate(0,0)"/>
<path d="" fill="#FFFFFF" transform="translate(0,0)"/>
<path d="" fill="#FFFFFF" transform="translate(0,0)"/>
<path d="" fill="#FFFFFF" transform="translate(0,0)"/>
<path d="" fill="#FFFFFF" transform="translate(0,0)"/>
<path d="" fill="#FFFFFF" transform="translate(0,0)"/>
<path d="" fill="#FFFFFF" transform="translate(0,0)"/>
<path d="" fill="#FEFFFF" transform="translate(0,0)"/>
<path d="" fill="#FFFFFF" transform="translate(0,0)"/>
<path d="" fill="#FFFFFF" transform="translate(0,0)"/>
<path d="" fill="#FFFFFF" transform="translate(0,0)"/>
<path d="" fill="#FFFFFF" transform="translate(0,0)"/>
<path d="" fill="#FFFFFF" transform="translate(0,0)"/>
<path d="" fill="#FFFFFF" transform="translate(0,0)"/>
<path d="" fill="#FFFFFF" transform="translate(0,0)"/>
<path d="" fill="#FFFFFF" transform="translate(0,0)"/>
<path d="" fill="#FFFFFF" transform="translate(0,0)"/>
<path d="" fill="#FFFFFF" transform="translate(0,0)"/>
<path d="" fill="#FFFFFF" transform="translate(0,0)"/>
<path d="" fill="#FFFFFF" transform="translate(0,0)"/>
<path d="" fill="#FFFFFF" transform="translate(0,0)"/>
<path d="" fill="#FFFFFF" transform="translate(0,0)"/>
<path d="" fill="#FFFFFF" transform="translate(0,0)"/>
<path d="" fill="#FFFFFF" transform="translate(0,0)"/>
<path d="" fill="#FFFFFF" transform="translate(0,0)"/>
<path d="" fill="#FFFFFF" transform="translate(0,0)"/>
<path d="" fill="#FFFFFF" transform="translate(0,0)"/>
<path d="" fill="#FFFFFF" transform="translate(0,0)"/>
<path d="" fill="#FFFFFF" transform="translate(0,0)"/>
<path d="" fill="#FFFFFF" transform="translate(0,0)"/>
<path d="" fill="#FFFFFF" transform="translate(0,0)"/>
<path d="" fill="#FFFFFF" transform="translate(0,0)"/>
<path d="" fill="#FFFFFF" transform="translate(0,0)"/>
<path d="" fill="#FFFFFF" transform="translate(0,0)"/>
<path d="" fill="#FFFFFF" transform="translate(0,0)"/>
<path d="" fill="#FFFFFF" transform="translate(0,0)"/>
<path d="" fill="#FFFFFF" transform="translate(0,0)"/>
<path d="" fill="#FFFFFF" transform="translate(0,0)"/>
<path d="" fill="#FFFFFF" transform="translate(0,0)"/>
<path d="" fill="#FFFFFF" transform="translate(0,0)"/>
<path d="" fill="#FFFFFF" transform="translate(0,0)"/>
<path d="" fill="#FFFFFF" transform="translate(0,0)"/>
<path d="" fill="#FFFFFF" transform="translate(0,0)"/>
<path d="" fill="#FFFFFF" transform="translate(0,0)"/>
<path d="" fill="#FFFFFF" transform="translate(0,0)"/>
<path d="" fill="#FFFFFF" transform="translate(0,0)"/>
<path d="" fill="#FFFFFF" transform="translate(0,0)"/>
<path d="" fill="#FFFFFF" transform="translate(0,0)"/>
<path d="" fill="#FFFFFF" transform="translate(0,0)"/>
<path d="" fill="#FFFFFF" transform="translate(0,0)"/>
<path d="" fill="#FFFFFF" transform="translate(0,0)"/>
<path d="" fill="#FFFFFF" transform="translate(0,0)"/>
<path d="" fill="#FFFFFF" transform="translate(0,0)"/>
<path d="" fill="#FFFFFF" transform="translate(0,0)"/>
<path d="" fill="#FFFFFF" transform="translate(0,0)"/>
<path d="" fill="#FFFFFF" transform="translate(0,0)"/>
<path d="" fill="#FFFFFF" transform="translate(0,0)"/>
<path d="" fill="#FFFFFF" transform="translate(0,0)"/>
<path d="" fill="#FFFFFF" transform="translate(0,0)"/>
<path d="" fill="#FFFFFF" transform="translate(0,0)"/>
<path d="" fill="#FFFFFF" transform="translate(0,0)"/>
<path d="" fill="#FFFFFF" transform="translate(0,0)"/>
<path d="" fill="#FFFFFF" transform="translate(0,0)"/>
<path d="" fill="#FFFFFF" transform="translate(0,0)"/>
<path d="" fill="#FFFFFF" transform="translate(0,0)"/>
<path d="" fill="#FFFFFF" transform="translate(0,0)"/>
<path d="" fill="#FFFFFF" transform="translate(0,0)"/>
<path d="" fill="#FFFFFF" transform="translate(0,0)"/>
<path d="" fill="#FFFFFF" transform="translate(0,0)"/>
<path d="" fill="#FFFFFF" transform="translate(0,0)"/>
<path d="" fill="#FFFFFF" transform="translate(0,0)"/>
<path d="" fill="#FFFFFF" transform="translate(0,0)"/>
<path d="" fill="#FFFFFF" transform="translate(0,0)"/>
<path d="" fill="#FFFFFF" transform="translate(0,0)"/>
<path d="" fill="#FFFFFF" transform="translate(0,0)"/>
<path d="" fill="#FFFFFF" transform="translate(0,0)"/>
<path d="" fill="#FFFFFF" transform="translate(0,0)"/>
</svg>
